<svg width="1199" height="1080" viewBox="0 0 1199 1080" fill="none" xmlns="http://www.w3.org/2000/svg">
<g opacity="0.2">
<path fill-rule="evenodd" clip-rule="evenodd" d="M1761.31 -1.75928L1686.35 91.8551C1633.1 92.2656 1576.04 122.169 1510.75 164.051L1594.39 -0.0278891L1761.31 -1.75182V-1.75928ZM211.074 -1.75928L286.035 91.8551C339.291 92.2656 396.348 122.169 461.637 164.051L378.001 -0.0278891L211.074 -1.75182V-1.75928ZM112.78 451.835C432.037 378.467 697.475 497.672 876.466 659.407C601.656 309.204 429.075 311.48 112.78 451.835Z" fill="#D5CB9F"/>
<path fill-rule="evenodd" clip-rule="evenodd" d="M946.645 534.471C654.394 317.488 399.182 195.933 4.70959 405.849C327.655 172.716 614.649 195.992 917.314 405.849C1280.42 657.616 1496.7 745.626 1885.74 534.471C1563.73 784.694 1251.84 761.067 946.645 534.471Z" stroke="#373435" stroke-width="0.755381" stroke-miterlimit="22.9256"/>
<path fill-rule="evenodd" clip-rule="evenodd" d="M946.645 534.471C654.394 317.488 399.182 195.933 4.70959 405.849C327.655 172.716 614.649 195.992 917.314 405.849C1280.42 657.616 1496.7 745.626 1885.74 534.471C1563.73 784.694 1251.84 761.067 946.645 534.471Z" stroke="#373435" stroke-width="0.755381" stroke-miterlimit="22.9256"/>
<path fill-rule="evenodd" clip-rule="evenodd" d="M867.349 551.069C680.741 411.804 518.575 330.638 323.276 339.115L293.631 291.45C477.03 263.136 654.439 321.376 837.689 450.051C1194.99 700.946 1390.14 786.254 1785.79 592.615C1441.65 850.763 1180.85 785.037 867.349 551.069Z" fill="#998D6F"/>
<path fill-rule="evenodd" clip-rule="evenodd" d="M1036.14 752.163C1286.75 857.92 1417.3 859.33 1616.43 815.135C1366.26 829.091 1199.64 788.179 1060.02 713.334L1036.14 752.156V752.163Z" fill="#998D6F"/>
<path fill-rule="evenodd" clip-rule="evenodd" d="M946.645 534.471C654.394 317.488 399.182 195.933 4.70959 405.849C327.655 172.715 614.649 195.992 917.314 405.849C1280.42 657.616 1496.7 745.626 1885.74 534.471C1563.73 784.694 1251.84 761.067 946.645 534.471ZM86.6737 -41.3275L248.915 219.545C281.47 206.269 319.558 196.552 361.732 190.985L268.304 38.794C363.951 39.9358 438.538 151.282 451.921 172.812L459.891 185.634C489.881 186.119 521.071 188.432 553.101 192.723C565.255 194.35 577.281 196.253 589.18 198.373L519.205 86.0789C422.47 -69.164 228.739 -95.3662 86.6662 -41.335L86.6737 -41.3275ZM401.064 464.208L799.691 1105.18C884.444 1241.46 1074.02 1253.9 1167.04 1104.38L1332.41 838.546C1296.75 834.599 1259.88 827.628 1220.31 817.158L1099.42 1014.03C1022.43 1139.4 937.55 1128.93 867.425 1014.71L539.898 481.194C532.415 479.582 524.88 478.074 517.293 476.664C476.91 469.171 437.908 465.119 401.072 464.208H401.064ZM1517.39 541.188L1880.62 -42.6857C1707.03 -101.262 1529.34 -49.7083 1446.43 85.1012L1208.33 472.223C1236.74 494.194 1261.77 520.695 1281.59 549.345L1523.02 161.596C1527.02 155.17 1601.6 40.7045 1698.99 37.6447L1518.6 331.414C1480.05 394.206 1462.75 458.857 1517.4 541.195L1517.39 541.188ZM1036.14 752.156L985.527 834.449L885.276 673.564C874.465 654.765 857.393 636.556 834.105 617.22C789.907 580.525 733.269 546.375 667.838 520.143L983.555 1028L1131.99 789.59C1101.94 778.933 1070.14 766.5 1036.14 752.156H1036.14Z" fill="#423F32"/>
<path fill-rule="evenodd" clip-rule="evenodd" d="M112.773 451.842C446.537 407.356 708.662 519.971 876.459 659.415C629.87 329.063 471.954 341.668 112.773 451.842Z" fill="#998D6F"/>
</g>
</svg>
