<svg width="74" height="21" viewBox="0 0 74 21" fill="none" xmlns="http://www.w3.org/2000/svg">
<path d="M33.0102 19.4701V16.7758H33.9779C34.22 16.7758 34.4215 16.837 34.5824 16.9595C34.7441 17.0811 34.8612 17.2438 34.9338 17.4476C35.0064 17.6515 35.0426 17.8712 35.0426 18.1068C35.0426 18.5379 34.9491 18.8731 34.762 19.1125C34.5758 19.3509 34.3145 19.4701 33.9779 19.4701H33.0102ZM33.2489 17.0016V19.2443H33.8415C33.9866 19.2443 34.1103 19.2317 34.2126 19.2064C34.3158 19.1812 34.4141 19.1223 34.5076 19.0297C34.6021 18.9371 34.6733 18.8132 34.7214 18.658C34.7695 18.5019 34.7935 18.3121 34.7935 18.0886C34.7935 17.3639 34.4762 17.0016 33.8415 17.0016H33.2489Z" fill="#C8C8C8"/>
<path d="M37.497 19.4701H35.8344V16.7758H37.4445V17.003H36.0743V17.9708H37.3423V18.1924H36.0743V19.2471H37.497V19.4701Z" fill="#C8C8C8"/>
<path d="M40.072 16.7758L39.1318 19.4701H38.884L37.9622 16.7758H38.2179L39.0112 19.1938L39.8334 16.7758H40.072Z" fill="#C8C8C8"/>
<path d="M42.3349 19.4701H40.6723V16.7758H42.2825V17.003H40.9122V17.9708H42.1802V18.1924H40.9122V19.2471H42.3349V19.4701Z" fill="#C8C8C8"/>
<path d="M44.5861 19.4701H43.0794V16.7758H43.3168V19.2499H44.5861V19.4701Z" fill="#C8C8C8"/>
<path d="M47.5466 18.1237C47.5466 18.5444 47.4425 18.882 47.2345 19.1363C47.0264 19.3897 46.7393 19.5164 46.373 19.5164C46.1317 19.5164 45.925 19.4603 45.7528 19.3481C45.5815 19.2359 45.4468 19.0755 45.3489 18.867C45.251 18.6585 45.2021 18.4107 45.2021 18.1237C45.2021 17.7038 45.3065 17.3667 45.5155 17.1124C45.7244 16.8571 46.0102 16.7295 46.373 16.7295C46.6178 16.7295 46.8267 16.7865 46.9998 16.9006C47.1729 17.0147 47.307 17.176 47.4023 17.3845C47.4985 17.5921 47.5466 17.8385 47.5466 18.1237ZM47.2974 18.1237C47.2974 17.7702 47.2153 17.4846 47.0509 17.2667C46.8866 17.0488 46.6606 16.9399 46.373 16.9399C46.0837 16.9399 45.8577 17.0493 45.6951 17.2681C45.5325 17.4869 45.4512 17.7721 45.4512 18.1237C45.4512 18.4724 45.5338 18.7567 45.699 18.9764C45.8642 19.1961 46.0889 19.306 46.373 19.306C46.5609 19.306 46.7222 19.2583 46.8568 19.1629C46.9915 19.0666 47.0986 18.9292 47.1781 18.7506C47.2576 18.5711 47.2974 18.3621 47.2974 18.1237Z" fill="#C8C8C8"/>
<path d="M48.5625 18.3312V19.4701H48.3225V16.7758H49.1971C49.4533 16.7758 49.6526 16.8431 49.7951 16.9778C49.9375 17.1115 50.0088 17.3013 50.0088 17.5472C50.0088 17.6566 49.9909 17.7595 49.955 17.8558C49.9192 17.9521 49.8685 18.0367 49.8029 18.1096C49.7374 18.1816 49.6517 18.2368 49.5459 18.2751C49.4402 18.3125 49.3239 18.3312 49.1971 18.3312H48.5625ZM48.5625 17.0086V18.1082H49.1303C49.5499 18.1082 49.7597 17.924 49.7597 17.5556C49.7597 17.1909 49.5499 17.0086 49.1303 17.0086H48.5625Z" fill="#C8C8C8"/>
<path d="M52.4042 19.4701H50.7415V16.7758H52.3517V17.003H50.9815V17.9708H52.2494V18.1924H50.9815V19.2471H52.4042V19.4701Z" fill="#C8C8C8"/>
<path d="M55.185 19.4701H54.8808L54.5412 18.9007C54.4005 18.665 54.2999 18.5131 54.2396 18.4448C54.1793 18.3766 54.1081 18.3242 54.0259 18.2878C53.9446 18.2504 53.8546 18.2316 53.7558 18.2316H53.3926V19.4701H53.1526V16.7758H54.2121C54.3729 16.7758 54.5097 16.8048 54.6225 16.8628C54.7361 16.9198 54.8231 17.0016 54.8834 17.1082C54.9438 17.2139 54.9739 17.3424 54.9739 17.4939C54.9739 17.9231 54.7305 18.1629 54.2436 18.2134C54.4228 18.3116 54.5766 18.4663 54.7051 18.6777L55.185 19.4701ZM53.3926 17.0016V18.0114H54.056C54.501 18.0114 54.7235 17.8399 54.7235 17.4967C54.7235 17.4228 54.7117 17.356 54.6881 17.2961C54.6653 17.2363 54.6277 17.1821 54.5753 17.1334C54.5237 17.0848 54.4564 17.0507 54.3734 17.0311C54.2912 17.0114 54.1894 17.0016 54.0678 17.0016H53.3926Z" fill="#C8C8C8"/>
<path d="M19.8424 2.21245C19.8875 2.38956 19.91 2.56667 19.8875 2.74379C19.8424 2.92091 19.6848 3.0316 19.4821 2.96518C19.4371 2.96518 19.4146 2.92091 19.4146 2.87663C19.4371 2.63309 19.2569 2.56667 19.0768 2.5224C19.0092 2.50026 18.9417 2.50026 18.8741 2.50026C18.131 2.47812 17.3879 2.50026 16.6448 2.58881L14.6406 2.85449C13.8299 2.98732 12.9967 3.09802 12.1861 3.27513C12.0735 3.29727 11.9609 3.31941 11.8708 3.38583C11.7807 3.47439 11.6681 3.51867 11.533 3.54081C11.443 3.56295 11.3754 3.60722 11.3078 3.67364C10.6548 4.31568 10.0468 4.97986 9.48384 5.68832L8.87583 6.44106C8.7182 6.66246 8.56057 6.86171 8.42546 7.0831C8.3579 7.17166 8.29035 7.28236 8.26783 7.39305C8.20027 7.45947 8.13272 7.52589 8.08768 7.59231H8.20027C8.15524 7.65873 8.08768 7.70301 8.02012 7.74728C7.86249 7.8137 7.77242 7.94654 7.68234 8.10151C7.65982 8.14579 7.65982 8.21221 7.70486 8.25649C7.59227 8.38933 7.52471 8.56644 7.3896 8.67714C7.32204 8.7657 7.27701 8.85425 7.20945 8.92067C7.16441 9.05351 7.11938 9.1642 7.0293 9.23062C6.96175 9.18634 6.91671 9.18634 6.87167 9.25276C6.73656 9.42988 6.62397 9.58485 6.51137 9.76197C6.37626 9.96122 6.26367 10.1605 6.10604 10.3376C6.03848 10.4261 5.99344 10.5368 5.97093 10.6475C5.99344 10.6254 6.03848 10.6033 6.08352 10.5811C5.97093 10.8468 5.8133 11.1125 5.58811 11.3117V11.201C5.56559 11.2232 5.54307 11.2674 5.52055 11.3117H5.58811C5.7007 11.4446 5.83581 11.4888 5.99344 11.4667C6.08352 11.4667 6.17359 11.4667 6.24115 11.4446C6.669 11.3339 7.09686 11.2674 7.52471 11.2453L8.02012 11.1789C8.42546 11.1125 8.80828 11.1789 9.19109 11.2674C9.55139 11.3339 9.66398 11.6217 9.77658 11.9316C9.77658 11.9538 9.75406 11.998 9.75406 12.0423C9.73154 12.1087 9.6865 12.153 9.61895 12.1309H9.57391C8.92087 11.9095 8.22279 11.9538 7.54723 12.0645C6.91671 12.153 6.26367 12.2859 5.63315 12.4408C5.49803 12.4851 5.36292 12.5072 5.20529 12.5515C5.13774 12.5737 5.07018 12.5958 5.02514 12.6401C4.86751 12.7508 4.70988 12.8172 4.57477 12.9058C4.46218 12.95 4.3721 13.0386 4.34958 13.1493L4.46218 13.0829C4.39462 13.2821 4.28203 13.4592 4.16943 13.6364C4.14692 13.6364 4.14692 13.6142 4.14692 13.6142C4.07936 13.5699 4.03432 13.5921 3.98928 13.6585C3.98928 13.6585 3.96677 13.7028 3.98928 13.7028C4.03432 13.747 4.07936 13.6806 4.10188 13.6585C4.1244 13.6585 4.14692 13.6364 4.16943 13.6364L3.62899 14.4998C3.60647 14.5441 3.56143 14.5662 3.53891 14.6105V14.4334C3.47136 14.5219 3.4038 14.6326 3.35876 14.7433C3.31373 14.7876 3.24617 14.854 3.22365 14.8983C3.20113 14.9426 3.15609 14.9869 3.17861 15.009C3.26869 15.164 3.13358 15.2747 3.06602 15.4075C2.93091 15.651 2.77328 15.9167 2.61565 16.1602C2.59313 16.1824 2.57061 16.2267 2.54809 16.2045C2.52557 16.1824 2.54809 16.1381 2.54809 16.116V16.0938C2.39046 16.2267 2.30039 16.3816 2.30039 16.5809C2.30039 16.7137 2.25535 16.7801 2.16527 16.8687C2.09772 16.8244 2.0752 16.8908 2.05268 16.9351C2.0752 16.913 2.12024 16.8908 2.16527 16.8687C2.12024 17.0458 2.03016 17.2008 1.91757 17.3558C1.89505 17.4 1.85001 17.4 1.80498 17.3558V17.3779C1.7149 17.4665 1.64735 17.555 1.60231 17.6657C1.64735 17.6436 1.69238 17.6214 1.73742 17.6214L1.66986 17.7764C1.64735 17.8207 1.60231 17.8207 1.55727 17.7986C1.48971 17.865 1.44468 17.9535 1.42216 18.0421C1.48971 18.0864 1.48971 18.0864 1.42216 18.1528C1.3546 18.4185 1.21949 18.662 1.08438 18.9055C1.08438 18.9498 1.06186 18.9719 1.03934 18.9941C0.859192 19.1269 0.769118 19.304 0.72408 19.5254C0.701562 19.6361 0.588969 19.6583 0.498894 19.6583C0.386301 19.6583 0.296226 19.6583 0.251189 19.5476C0.183633 19.3926 0.116077 19.2376 0.0260023 19.0826C-0.019035 18.9941 0.00348365 18.9055 0.0260023 18.817C0.116077 18.5734 0.206152 18.3078 0.318745 18.0864C0.453857 17.865 0.56645 17.6214 0.679043 17.4L0.769118 17.2451C1.01682 16.8908 1.19697 16.4923 1.42216 16.1381C1.66986 15.6953 1.94009 15.2747 2.18779 14.8319C2.27787 14.699 2.36794 14.5662 2.4355 14.4112C2.57061 14.1677 2.72824 13.9242 2.88587 13.6806C2.95343 13.6142 3.02098 13.5257 3.0435 13.415C3.06602 13.3043 2.99846 13.2157 2.88587 13.2378L2.66068 13.26C2.77328 13.1936 2.90839 13.1493 3.02098 13.105C3.08854 13.0829 3.15609 13.0607 3.22365 13.0165V12.9722C3.22365 12.9722 3.20113 12.95 3.17861 12.95C3.13358 12.95 3.08854 12.95 3.0435 12.9722C2.72824 13.105 2.41298 13.2157 2.09772 13.3707C2.05268 13.3928 1.98512 13.4371 1.94009 13.4814C1.87253 13.5257 1.91757 13.5699 1.98513 13.5699C1.96261 13.5921 1.91757 13.6142 1.89505 13.6142C1.82749 13.6585 1.78246 13.7028 1.7149 13.6364C1.62483 13.5257 1.62483 13.415 1.69238 13.3485L1.89505 13.2157C2.25535 13.0165 2.63817 12.8393 3.02098 12.7065C3.13358 12.6622 3.24617 12.6179 3.33624 12.5958C3.44884 12.5515 3.51639 12.463 3.56143 12.3744V12.3301C3.56143 12.3301 3.53891 12.308 3.51639 12.308C3.49387 12.3301 3.44884 12.3301 3.4038 12.3301C3.15609 12.4408 2.90839 12.5072 2.6832 12.6179C2.41298 12.7508 2.12024 12.8836 1.87253 13.0607C1.85001 13.0829 1.80498 13.105 1.75994 13.1271C1.73742 13.1271 1.7149 13.1271 1.7149 13.105C1.69238 13.105 1.69238 13.0607 1.7149 13.0607C1.75994 12.9722 1.82749 12.9058 1.89505 12.8615C2.12024 12.7286 2.34542 12.5958 2.59313 12.5072C2.99846 12.3523 3.4038 12.153 3.80914 11.9759C3.96677 11.8873 4.10188 11.7766 4.19195 11.6217C4.39462 11.3117 4.61981 11.0239 4.79996 10.6918C4.84499 10.5811 4.93507 10.4926 5.02514 10.3819C5.16025 10.249 5.27285 10.0941 5.36292 9.93908C5.47552 9.71769 5.61063 9.51843 5.76826 9.31918C5.88085 9.1642 5.97093 9.00923 6.08352 8.83211C6.44382 8.25649 6.84915 7.72514 7.25449 7.1938C7.45716 6.95027 7.61479 6.6846 7.79494 6.44106C7.86249 6.33037 7.95257 6.21967 8.04264 6.13111C8.24531 5.97614 8.38042 5.75474 8.51553 5.57763C8.76324 5.2234 9.05598 4.93559 9.32621 4.6035L9.7991 4.11643C9.86665 4.02787 9.93421 3.91718 9.95673 3.78434C9.97925 3.74006 9.95673 3.71792 9.88917 3.71792C9.82162 3.71792 9.75406 3.71792 9.6865 3.74006C8.51553 4.00573 7.36708 4.24927 6.21863 4.55922C5.76826 4.66991 5.3404 4.82489 4.91255 4.95773C4.77744 5.002 4.66484 5.04628 4.52973 5.06842C4.64233 4.95773 4.79996 4.89131 4.95759 4.84703C5.54307 4.69205 6.12856 4.4928 6.71404 4.33782C7.7499 4.09429 8.80828 3.82862 9.86665 3.62936C9.97925 3.60722 10.0918 3.56295 10.1819 3.54081C10.2044 3.54081 10.2495 3.49653 10.2495 3.47439C10.2495 3.43011 10.2044 3.43011 10.1819 3.43011L9.86665 3.47439C8.89835 3.67364 7.95257 3.89504 7.00678 4.13857C6.24115 4.31568 5.49803 4.53708 4.77744 4.80275C4.68736 4.84703 4.59729 4.86917 4.52973 4.91345C4.46218 4.95773 4.4847 5.02414 4.52973 5.06842L4.10188 5.26768C4.05684 5.28982 4.0118 5.26768 3.96677 5.24554C3.78662 5.09056 3.78662 4.86917 3.78662 4.64777C3.78662 4.6035 3.83165 4.55922 3.87669 4.53708C3.89921 4.4928 3.92173 4.47066 3.96677 4.47066C4.3721 4.29354 4.75492 4.05001 5.18277 3.91718C5.453 3.80648 5.74574 3.71792 6.03848 3.6515L6.30871 3.58509C6.4213 3.54081 6.53389 3.49653 6.669 3.47439C6.91671 3.40797 7.18693 3.36369 7.43464 3.253L7.52471 3.23086C7.90753 3.18658 8.26783 3.05374 8.65065 2.98732C8.74072 2.96518 8.83079 2.94304 8.92087 2.89876C9.10102 2.85449 9.28117 2.81021 9.46132 2.81021C9.64147 2.81021 9.7991 2.76593 9.97925 2.72165C10.272 2.63309 10.5872 2.58881 10.88 2.54454C11.1277 2.50026 11.3754 2.43384 11.6006 2.34528C11.8033 2.25672 12.0059 2.21245 12.2311 2.25672C12.5689 2.301 12.9067 2.25672 13.2219 2.16817C13.4246 2.12389 13.6273 2.07961 13.8299 2.07961C13.875 2.07961 13.92 2.07961 13.965 2.05747C14.4379 1.96891 14.9108 1.94677 15.4062 1.83608C15.5188 1.81394 15.6539 1.7918 15.7665 1.7918C15.9917 1.81394 16.1944 1.76966 16.4196 1.74752C16.8024 1.70324 17.1852 1.6811 17.568 1.6811C17.8383 1.6811 18.131 1.63682 18.4237 1.63682C18.784 1.63682 19.1218 1.6811 19.4596 1.81394C19.6623 1.88035 19.7749 2.01319 19.8424 2.21245ZM19.302 2.03533C19.3245 2.03533 19.3245 2.01319 19.3245 1.99105C19.3245 1.99105 19.3245 1.96891 19.302 1.94677C19.2344 1.90249 19.1669 1.90249 19.0993 1.88035C18.5814 1.7918 18.0634 1.7918 17.5455 1.83608C17.0051 1.88035 16.4421 1.92463 15.8791 1.99105C15.0459 2.07961 14.2128 2.21245 13.357 2.32314C13.0868 2.36742 12.7941 2.43384 12.5013 2.47812C12.4788 2.47812 12.4113 2.50026 12.4338 2.54454C12.4338 2.56667 12.5013 2.56667 12.5239 2.58881C12.5689 2.58881 12.6139 2.56667 12.6815 2.56667C12.7265 2.58881 12.8166 2.61095 12.8842 2.61095C13.312 2.56667 13.7624 2.5224 14.1677 2.38956C14.3028 2.38956 14.4379 2.38956 14.573 2.36742C15.4738 2.25672 16.352 2.14603 17.2528 2.07961C17.8608 2.03533 18.4463 2.03533 19.0543 2.05747C19.1443 2.05747 19.2119 2.07961 19.302 2.03533ZM19.2569 2.43384C19.2794 2.43384 19.2794 2.4117 19.302 2.4117C19.2794 2.38956 19.2794 2.36742 19.2569 2.36742C19.1669 2.32314 19.0768 2.32314 18.9867 2.301C18.4237 2.25672 17.8383 2.27886 17.2753 2.32314C16.8024 2.36742 16.3295 2.43384 15.8566 2.47812C14.7307 2.61095 13.6047 2.81021 12.5013 3.00946C12.3437 3.0316 12.1861 3.05374 12.0059 3.1423C12.1861 3.18658 12.2987 3.16444 12.4113 3.1423C12.8842 3.07588 13.3345 2.98732 13.8074 2.92091C14.6856 2.76593 15.5639 2.63309 16.4646 2.54454C17.1402 2.47812 17.8157 2.38956 18.5138 2.4117C18.6714 2.4117 18.8516 2.43384 19.0092 2.43384C19.0993 2.43384 19.1669 2.45598 19.2569 2.43384ZM12.4788 2.67737C12.5013 2.67737 12.5013 2.67737 12.5013 2.65523H12.4788V2.67737ZM10.8575 2.83235V2.81021C10.8575 2.81021 10.835 2.78807 10.8124 2.78807H10.7224C9.82162 2.94304 8.92087 3.12016 8.02012 3.31941C7.20945 3.51867 6.37626 3.7622 5.56559 4.00573C5.40796 4.05001 5.27285 4.11643 5.11522 4.16071C5.02514 4.20499 4.98011 4.24927 4.98011 4.33782C5.31789 4.31568 5.61063 4.18285 5.90337 4.05001V4.02787C6.01596 4.07215 6.12856 4.05001 6.21863 3.98359C6.53389 3.93931 6.84915 3.8729 7.1419 3.74006C7.3896 3.69578 7.65982 3.69578 7.88501 3.54081C7.97509 3.54081 8.06516 3.54081 8.13272 3.49653C8.42546 3.47439 8.69568 3.43011 8.94339 3.29727C9.05598 3.29727 9.16857 3.29727 9.25865 3.23086V3.253C9.30369 3.23086 9.37124 3.253 9.41628 3.23086C9.82162 3.16444 10.2044 3.09802 10.6098 3.00946C10.6323 3.00946 10.6773 2.98732 10.6773 2.98732C10.6998 2.87663 10.7899 2.87663 10.8575 2.83235ZM8.13272 3.43011C8.15524 3.43011 8.17775 3.40797 8.20027 3.40797C8.17775 3.43011 8.15524 3.43011 8.13272 3.43011ZM7.88501 3.49653L8.13272 3.43011C8.13272 3.45225 8.13272 3.47439 8.13272 3.49653H7.88501ZM7.63731 3.54081C7.72738 3.51867 7.81746 3.49653 7.88501 3.49653V3.54081C7.79494 3.54081 7.72738 3.54081 7.63731 3.54081ZM7.63731 3.54081C7.61479 3.56295 7.59227 3.56295 7.59227 3.56295C7.59227 3.56295 7.61479 3.54081 7.63731 3.54081ZM7.56975 3.58509C7.54723 3.56295 7.54723 3.56295 7.59227 3.56295L7.56975 3.58509ZM6.89419 3.74006C6.98426 3.69578 7.05182 3.67364 7.1419 3.67364V3.74006C7.05182 3.74006 6.98426 3.74006 6.89419 3.74006ZM4.84499 4.40424C4.89003 4.3821 4.93507 4.35996 4.95759 4.33782H4.84499C4.84499 4.35996 4.84499 4.3821 4.84499 4.40424C4.77744 4.40424 4.70988 4.42638 4.66484 4.47066C4.7324 4.47066 4.77744 4.44852 4.84499 4.40424ZM4.43966 4.58136C4.50721 4.55922 4.57477 4.51494 4.64233 4.47066H4.66484C4.57477 4.44852 4.4847 4.42638 4.41714 4.47066C4.3721 4.4928 4.32706 4.51494 4.32706 4.58136C4.30455 4.62564 4.3721 4.62564 4.43966 4.58136ZM6.87167 8.30077C6.91671 8.30077 6.91671 8.27863 6.93923 8.25649C6.93923 8.23435 6.93923 8.21221 6.89419 8.21221C6.89419 8.23435 6.87167 8.25649 6.84915 8.27863L6.87167 8.30077ZM6.15108 9.34132V9.31918H6.12856L6.15108 9.34132ZM5.72322 9.93908C5.79078 9.8948 5.8133 9.85052 5.83581 9.78411C5.79078 9.82838 5.74574 9.87266 5.72322 9.93908ZM5.31789 10.6697C5.43048 10.4926 5.54307 10.3376 5.58811 10.1605C5.49803 10.249 5.40796 10.3597 5.3404 10.4704C5.22781 10.6033 5.11522 10.7361 5.0927 10.9354L5.31789 10.6697ZM5.7007 11.7324C5.63315 11.7324 5.58811 11.7766 5.52055 11.7988C5.49803 11.7988 5.47552 11.9316 5.47552 11.9538C5.52055 11.998 5.56559 11.9759 5.58811 11.9759C5.67818 11.9538 5.76826 11.9538 5.83581 11.9316C6.53389 11.7766 7.25449 11.6217 7.97509 11.5553C7.99761 11.5553 8.04264 11.5553 8.06516 11.5331C8.08768 11.4224 8.17775 11.4667 8.26783 11.4667C8.44798 11.4667 8.65065 11.4667 8.85331 11.4888C8.89835 11.4888 8.96591 11.511 9.03346 11.4446C8.89835 11.3781 8.76324 11.3781 8.65065 11.3781C8.29035 11.356 7.93005 11.356 7.56975 11.4003C6.93923 11.4888 6.30871 11.5995 5.7007 11.7324ZM7.63731 11.9759C8.06516 11.9316 8.49302 11.8873 8.94339 11.7988C8.8308 11.7988 8.7182 11.7988 8.60561 11.7766C8.17775 11.7545 7.7499 11.8431 7.32205 11.9095C6.62397 11.998 5.94841 12.153 5.29537 12.3301C5.22781 12.3301 5.16026 12.3523 5.11522 12.3965C5.11522 12.4187 5.0927 12.4408 5.11522 12.4408C5.11522 12.463 5.13774 12.4851 5.16025 12.4851L5.47552 12.4187C6.19611 12.2637 6.91671 12.0866 7.63731 11.9759ZM2.66068 13.26C2.52557 13.3485 2.39046 13.4371 2.23283 13.4592C2.36794 13.3485 2.50305 13.3043 2.66068 13.26ZM3.15609 13.9463C3.35876 13.7471 3.51639 13.5035 3.58395 13.26C3.4038 13.4371 3.26869 13.6364 3.15609 13.9463C3.02098 14.057 2.95343 14.1898 2.90839 14.367C3.0435 14.2563 3.11106 14.1013 3.15609 13.9463ZM2.23283 13.4592C2.14276 13.4814 2.05268 13.5257 1.98513 13.5699C2.05268 13.5035 2.14276 13.4592 2.23283 13.4592ZM3.49387 14.7212C3.44884 14.7655 3.4038 14.7876 3.35876 14.7433C3.4038 14.699 3.47136 14.6548 3.53891 14.6105L3.49387 14.7212ZM2.0752 15.7839C2.14276 15.7396 2.14276 15.651 2.16527 15.5846C2.0752 15.6953 2.03016 15.806 2.0752 15.7839ZM1.30957 17.068C1.57979 16.758 1.73742 16.3816 1.91757 16.0274C1.64735 16.3152 1.4672 16.6916 1.30957 17.068ZM0.971786 17.6879V17.6657C0.949267 17.6879 0.949267 17.71 0.926748 17.7321L0.971786 17.6879Z" fill="#C8C8C8"/>
<path d="M20.92 12.2416C20.8974 12.2637 20.8524 12.2859 20.8749 12.308C20.92 12.5072 20.7623 12.5294 20.6272 12.5958C20.1994 12.7729 19.7265 12.9279 19.2761 13.0607C17.9475 13.5035 16.5964 13.8577 15.2453 14.1677C14.5022 14.3448 13.759 14.4555 12.9934 14.4998H12.5655C12.2953 14.4555 12.0251 14.4555 11.7549 14.4555C11.5072 14.4555 11.282 14.4334 11.0568 14.367C10.6289 14.2563 10.2686 13.8577 10.2236 13.4371C10.2011 13.1714 10.2011 12.9279 10.2236 12.6622C10.2461 12.5294 10.2912 12.3965 10.3587 12.2637C10.4713 11.998 10.6064 11.7766 10.7866 11.5553C11.0343 11.2674 11.282 11.0018 11.5297 10.7361C11.8224 10.4704 12.0927 10.2269 12.4755 10.1162C12.543 10.0941 12.5881 10.0498 12.6331 10.0276C12.8808 9.82838 13.1736 9.7841 13.4438 9.73983H13.9392C14.1869 9.73983 14.3896 9.82838 14.5922 9.93908C14.7048 10.0055 14.7949 10.0941 14.8399 10.2269C14.9525 10.4704 15.0426 10.7361 15.0426 11.0018C15.0651 11.201 15.0201 11.356 14.885 11.4888C14.7949 11.6217 14.6823 11.7545 14.6147 11.8873C14.5697 11.9759 14.5022 12.0202 14.4346 12.0645C14.277 12.153 14.1193 12.0645 14.0743 11.9095C14.0518 11.7324 14.0743 11.5774 14.1644 11.4224L14.2995 11.201C14.3896 11.046 14.3445 10.9575 14.2094 10.9132C14.0518 10.8689 13.8941 10.8468 13.7365 10.8468C13.4663 10.8911 13.2186 10.9575 12.9709 11.1125C12.7907 11.2232 12.6106 11.3339 12.453 11.4888C12.0251 11.8873 11.5972 12.2859 11.282 12.7729C11.1244 12.9943 11.1244 13.1493 11.4396 13.1714C11.7999 13.2378 12.1602 13.2157 12.6331 13.2378C13.0384 13.26 13.5338 13.2157 14.0518 13.1271C14.4346 13.0607 14.8174 12.9722 15.2002 12.8836C15.6281 12.7951 16.0334 12.6844 16.4613 12.5958C17.0468 12.4851 17.5872 12.308 18.1502 12.1752C18.3078 12.1309 18.4654 12.0866 18.6231 11.998C18.6681 11.9759 18.7357 11.9316 18.7807 11.9316L20.312 11.5331C20.4246 11.511 20.5146 11.4888 20.6272 11.4888C20.7398 11.4667 20.8974 11.5774 20.8299 11.7102C20.8074 11.8209 20.8524 11.9095 20.92 11.998C20.9875 12.0645 20.9875 12.153 20.92 12.2416ZM12.453 10.4926V10.5368C12.453 10.5368 12.453 10.5368 12.4755 10.5368C12.5205 10.5147 12.5881 10.5147 12.6331 10.4926C12.9258 10.3376 13.2186 10.2712 13.5338 10.249C13.714 10.249 13.9167 10.249 14.0968 10.2269H14.2094C14.2544 10.2048 14.277 10.1826 14.277 10.1605C14.277 10.1383 14.2544 10.0941 14.2319 10.0719C14.2094 10.0498 14.1869 10.0276 14.1419 10.0276C14.0293 10.0055 13.9167 9.98336 13.8716 9.98336C13.5789 9.96122 13.3762 10.0276 13.151 10.0719C13.106 10.0941 13.0384 10.1162 12.9934 10.1605C12.8808 10.2712 12.7457 10.3154 12.6331 10.3819C12.5655 10.404 12.498 10.4483 12.453 10.4926ZM14.1419 10.7361C14.1869 10.7361 14.2544 10.7361 14.2544 10.6697C14.2544 10.6475 14.2094 10.6254 14.1644 10.6254C13.8491 10.559 13.5564 10.6033 13.2411 10.714C13.1736 10.7361 13.0835 10.7804 13.0159 10.8911C13.1961 10.8468 13.3087 10.8247 13.4438 10.8025C13.669 10.7582 13.9167 10.7361 14.1419 10.7361ZM12.2728 11.4667C12.2503 11.4888 12.2503 11.4888 12.2728 11.511C12.2728 11.511 12.2728 11.4888 12.2953 11.4888C12.2953 11.4888 12.3178 11.4667 12.3178 11.4446C12.3178 11.4667 12.2953 11.4667 12.2728 11.4667ZM19.6814 12.153L19.7265 12.1309C19.7265 12.1087 19.7265 12.0866 19.6814 12.1087L19.6589 12.1309C19.6589 12.1309 19.6589 12.153 19.6814 12.153ZM11.6198 12.1309C11.6198 12.1087 11.6198 12.1087 11.5972 12.1309C11.5972 12.153 11.5972 12.153 11.5747 12.1752C11.5972 12.1752 11.5972 12.153 11.6198 12.153V12.1309ZM19.2986 12.9058C19.4112 12.8836 19.5013 12.8615 19.5914 12.7951C19.4337 12.8172 19.2986 12.8615 19.141 12.8836C19.1185 12.8836 19.0734 12.8836 19.0734 12.9279C19.1635 12.9722 19.2311 12.9279 19.2986 12.9058ZM16.2361 13.0386C16.146 13.0607 16.0334 13.0386 15.9659 13.105C16.0559 13.105 16.146 13.0829 16.2361 13.0386ZM18.3078 13.2157C18.3303 13.1936 18.3528 13.1714 18.3303 13.1493C18.3303 13.1271 18.2853 13.1271 18.2853 13.1271C18.2177 13.1271 18.1502 13.1493 18.1051 13.1714C17.3395 13.3928 16.5739 13.5921 15.7857 13.7692C14.7048 14.0349 13.6014 14.2563 12.4755 14.1898C12.2278 14.1898 11.9801 14.1677 11.7324 14.1677C11.5747 14.1456 11.4396 14.1456 11.3045 14.1456C11.282 14.1456 11.2595 14.1677 11.2369 14.1677C11.2595 14.1898 11.2595 14.212 11.282 14.212L11.5297 14.2784C12.2278 14.367 12.9258 14.367 13.6239 14.3227C14.277 14.2784 14.9075 14.1234 15.538 13.9684C16.3262 13.7692 17.1143 13.5478 17.8799 13.3485L18.3078 13.2157ZM11.1694 13.5478C11.1694 13.5699 11.2144 13.5921 11.2369 13.5921C11.89 13.6806 12.543 13.6806 13.1961 13.6806H13.4888C13.4438 13.7028 13.3987 13.7028 13.3312 13.7028C13.1285 13.7028 12.9033 13.7028 12.6781 13.7249C12.6331 13.7249 12.5881 13.7471 12.543 13.7471C12.543 13.7471 12.5205 13.7692 12.543 13.7692V13.7913C12.6106 13.8356 12.6781 13.8356 12.7682 13.8356C13.3537 13.8135 13.9392 13.7692 14.5247 13.6364C14.6373 13.6142 14.7499 13.5921 14.8624 13.5257C14.9525 13.5257 15.0426 13.5035 15.1102 13.4592C15.0426 13.4814 14.9525 13.4814 14.8624 13.5257H14.5022C14.7949 13.415 15.1102 13.3707 15.4029 13.2821C15.4705 13.26 15.538 13.2821 15.6056 13.1936C15.4705 13.1714 15.3579 13.2157 15.2678 13.2378C14.1193 13.5035 12.9709 13.6585 11.7774 13.5478C11.5972 13.5257 11.4396 13.5257 11.2595 13.5257C11.2144 13.5257 11.1694 13.5035 11.1694 13.5478ZM14.367 13.5699C14.367 13.5478 14.3896 13.5478 14.4121 13.5478C14.4346 13.5478 14.4796 13.5478 14.5022 13.5257C14.4796 13.5478 14.4346 13.5478 14.4121 13.5699H14.367ZM13.9842 13.6142C13.9617 13.6142 13.9392 13.6364 13.9392 13.6364H13.9167C13.9167 13.6142 13.9392 13.6142 13.9392 13.6142H13.9842Z" fill="#C8C8C8"/>
<path d="M40.7281 0.795527C40.8407 0.861944 40.8407 0.928362 40.8182 1.03906C40.7731 1.17189 40.7056 1.28259 40.6155 1.37115C40.0525 1.99105 39.5571 2.63309 39.0617 3.27513C38.7014 3.71792 38.3186 4.13857 37.9808 4.58136C37.8007 4.80275 37.643 5.04628 37.4629 5.26768C37.4178 5.33409 37.3728 5.42265 37.3728 5.48907C37.3728 5.59977 37.3052 5.64405 37.2377 5.68832C37.0125 5.7326 36.8999 5.90972 36.8324 6.10897C36.7198 6.19753 36.6297 6.28609 36.6297 6.44106C36.6072 6.59604 36.5171 6.6846 36.3595 6.75101C36.2694 6.79529 36.1793 6.86171 36.1118 6.95027L35.0984 8.23435C35.0534 8.27863 35.0534 8.32291 35.0309 8.36719L34.8282 8.5443C34.6255 8.80997 34.4454 9.05351 34.2427 9.29704C34.1977 9.34132 34.1752 9.40774 34.1526 9.47415V9.45201C34.04 9.54057 33.95 9.62913 33.9049 9.76197C33.9725 9.73983 34.0175 9.67341 34.1301 9.65127C34.04 9.76197 33.9725 9.87266 33.9049 9.96122V9.76197C33.8374 9.85052 33.7473 9.8948 33.6797 9.98336C33.2744 10.4926 32.8466 10.9575 32.4863 11.511C32.3511 11.6881 32.1935 11.8431 32.0359 12.0202C31.9233 12.153 31.8107 12.3301 31.6981 12.4851C31.6531 12.5515 31.6756 12.5958 31.7431 12.6401C31.4279 12.7729 31.2477 13.0165 31.0676 13.26C31 13.3707 30.91 13.4592 30.8424 13.5478C30.7974 13.6142 30.7974 13.6806 30.8649 13.7471C30.7748 13.7913 30.6848 13.8577 30.6172 13.9242C30.4371 14.0349 30.3245 14.212 30.2119 14.367C30.1668 14.4334 30.1894 14.4998 30.2344 14.5441C30.1668 14.5883 30.0993 14.6548 30.0092 14.699C29.9191 14.7433 29.8516 14.8097 29.784 14.8983C29.7615 14.9204 29.739 14.9647 29.7615 14.9869C29.784 15.0311 29.8291 14.9869 29.8741 14.9869C29.8966 14.9869 29.9191 14.9647 29.9191 14.9647C29.8516 15.0976 29.7615 15.2304 29.6264 15.3411C29.6039 15.2304 29.5588 15.2082 29.5138 15.2525L29.4012 15.3854C29.4012 15.4075 29.4012 15.4296 29.4237 15.4296C29.4237 15.4518 29.4462 15.4518 29.4688 15.4296C29.5138 15.4296 29.5363 15.4075 29.5588 15.3854C29.5138 15.5182 29.4237 15.6068 29.3111 15.6732C29.2211 15.7396 29.1535 15.8281 29.131 15.9388C29.0634 16.116 28.9508 16.2709 28.8382 16.4259C28.6356 16.6473 28.4554 16.8908 28.2978 17.1344C28.1402 17.3558 27.9825 17.5772 27.8024 17.7986C27.7573 17.865 27.6898 17.9092 27.6222 17.9535C27.6447 17.8871 27.6673 17.8207 27.7123 17.7321L27.6898 17.71C27.6673 17.71 27.6673 17.71 27.6673 17.71C27.5772 17.7321 27.5547 17.7986 27.5096 17.865C27.4196 17.9978 27.3295 18.1528 27.1944 18.2635L27.1268 18.3299C27.1268 18.352 27.1043 18.3963 27.1043 18.4185C27.1268 18.4406 27.1493 18.4406 27.1719 18.4185C27.2619 18.352 27.3295 18.2856 27.397 18.1971C27.4646 18.1085 27.5322 18.0199 27.6222 17.9535C27.5997 18.0642 27.5321 18.1528 27.4646 18.2413C27.1043 18.7505 26.7215 19.2376 26.3612 19.7247C26.2036 19.9461 26.0009 20.1232 25.8207 20.3224C25.7081 20.4553 25.5505 20.5438 25.3704 20.4774C25.2803 20.4553 25.1902 20.4774 25.1227 20.4774C24.965 20.4774 24.8524 20.411 24.7624 20.3003C24.6723 20.1675 24.5597 20.0789 24.4471 19.9682C24.3345 19.8797 24.2895 19.769 24.2895 19.6361C24.2895 19.5033 24.312 19.3704 24.357 19.2376C24.4921 18.817 24.6272 18.3963 24.7398 17.9535C24.8074 17.6657 24.92 17.3779 25.0101 17.1122C25.1677 16.7137 25.3028 16.3152 25.4604 15.8946L25.7982 14.9426C26.0459 14.2784 26.2486 13.5699 26.5413 12.9058C26.6764 12.5958 26.789 12.2637 26.9016 11.9316C26.9917 11.6438 27.1268 11.356 27.2394 11.046C27.2844 10.9575 27.307 10.8689 27.352 10.7582C27.4421 10.3819 27.5997 10.0055 27.7573 9.65127C27.915 9.29704 28.0501 8.94281 28.2527 8.58858L28.3203 8.4336C28.4104 8.05724 28.5455 7.68087 28.7031 7.34878C28.7932 7.17166 28.8608 7.01668 28.9283 6.86171C29.0409 6.64032 29.131 6.39678 29.2211 6.15325C29.3111 5.93186 29.4237 5.68832 29.5363 5.46693C29.6489 5.28982 29.7165 5.09056 29.784 4.91345C29.9191 4.55922 30.0768 4.22713 30.2119 3.89504C30.6622 2.96518 31.0901 2.01319 31.518 1.08334C31.5405 1.01692 31.563 0.950501 31.608 0.884084C31.6531 0.839805 31.7431 0.839805 31.7657 0.884084C32.0134 1.26045 32.0584 1.61468 31.8783 2.01319C31.7657 2.25672 31.6756 2.50026 31.5855 2.72165C31.4954 2.87663 31.4954 3.05374 31.4279 3.20872C31.3603 3.36369 31.2477 3.49653 31.2252 3.6515C31.1126 3.78434 31.0451 3.91718 30.9775 4.07215C30.7073 4.78061 30.4371 5.46693 30.1443 6.17539C30.0317 6.48534 29.9191 6.77315 29.784 7.0831C29.6939 7.3045 29.6039 7.54803 29.4913 7.76942C29.3111 8.16793 29.176 8.58858 29.0859 9.03137C29.0634 9.11992 29.0409 9.20848 28.9733 9.2749C28.9058 9.3856 28.8608 9.49629 28.8157 9.60699C28.7932 9.62913 28.7932 9.67341 28.7932 9.69555C28.8382 9.71769 28.8608 9.65127 28.9058 9.65127C28.9058 9.62913 28.9283 9.62913 28.9283 9.62913C28.9283 9.65127 28.9508 9.67341 28.9508 9.69555C28.8833 9.80624 28.8608 9.91694 28.7482 10.0055C28.7031 10.0276 28.6581 10.0719 28.6806 10.1162C28.7031 10.249 28.6581 10.3154 28.568 10.3819C28.5005 10.4261 28.4779 10.4926 28.4779 10.5811C28.523 10.8025 28.4329 11.0018 28.3203 11.1789C28.2978 11.1789 28.2978 11.1125 28.2527 11.1567C28.2753 11.1567 28.2978 11.1789 28.3203 11.1789C28.2077 11.5331 28.0726 11.8873 27.96 12.2416L27.7573 12.7951C27.7348 12.8615 27.7123 12.9058 27.6222 12.9279C27.4646 12.9943 27.4646 13.0386 27.5322 13.1936C27.5772 13.26 27.5547 13.3264 27.5547 13.3707C27.4871 13.5699 27.4421 13.7692 27.352 13.9463C27.1944 14.3448 27.0593 14.7433 26.9241 15.1197C26.8791 15.2747 26.8341 15.4075 26.744 15.5182C26.744 15.4518 26.789 15.3854 26.7215 15.3632C26.6539 15.3411 26.6539 15.4296 26.6314 15.4739C26.5864 15.5625 26.5638 15.651 26.5638 15.806C26.6539 15.6732 26.699 15.5846 26.7665 15.5182C26.699 15.9167 26.5413 16.2931 26.4062 16.6694L26.0684 17.6214C26.0459 17.6879 26.0459 17.7321 26.0234 17.7764C26.0234 17.7986 26.0459 17.8207 26.0459 17.8428C26.0684 17.865 26.091 17.865 26.136 17.8428C26.2261 17.7986 26.3161 17.7543 26.3837 17.6657C26.789 17.1344 27.1944 16.5809 27.6222 16.0717C27.9375 15.6953 28.2077 15.2968 28.4779 14.9204C28.8382 14.4112 29.2436 13.9463 29.6264 13.4592C29.8291 13.2157 30.0317 12.9722 30.2119 12.7286C30.4145 12.463 30.6172 12.2194 30.8199 11.9759C31 11.7766 31.1802 11.5774 31.3378 11.356C31.6305 10.9575 31.9683 10.559 32.3061 10.1826C32.3962 10.0719 32.4637 9.93908 32.5538 9.82838C32.8466 9.49629 33.1393 9.1642 33.4095 8.80997C33.7473 8.4336 34.0626 8.01296 34.3778 7.61445C34.5355 7.41519 34.7156 7.21594 34.8732 6.99455C34.9858 6.86171 35.0984 6.75101 35.211 6.59604C35.3236 6.44106 35.4587 6.30823 35.5713 6.15325C35.7515 5.93186 35.9316 5.75474 36.0667 5.51121C36.0892 5.48907 36.1343 5.46693 36.1568 5.42265C36.8324 4.69205 37.4178 3.89504 38.0484 3.12016C38.4762 2.63309 38.9041 2.16817 39.3094 1.65896C39.5796 1.30473 39.8949 0.994781 40.1876 0.662691C40.2552 0.596272 40.3453 0.529854 40.4353 0.507715C40.5254 0.485576 40.593 0.507715 40.6155 0.618411C40.6155 0.706969 40.6605 0.751247 40.7281 0.795527ZM35.1435 8.36719L35.0309 8.47788C35.0309 8.4336 35.0309 8.41147 35.0309 8.36719H35.1435ZM34.7156 8.92067C34.6931 8.94281 34.6706 8.96495 34.648 8.96495L34.7156 8.92067ZM33.8374 10.0276V10.0055C33.8599 9.98336 33.8824 9.96122 33.9049 9.96122L33.8374 10.0276ZM27.9375 10.2269C27.96 10.2269 27.96 10.2048 27.96 10.2048C27.96 10.1826 27.96 10.1826 27.9375 10.1826V10.2269ZM27.6222 11.0682C27.5322 11.201 27.4646 11.356 27.4421 11.5331C27.5547 11.4003 27.6222 11.2674 27.6222 11.0682ZM27.2619 12.0423C27.1268 12.2194 27.0593 12.3744 27.0367 12.5294C27.0367 12.5515 27.0367 12.5737 27.0593 12.5737C27.0818 12.5737 27.0818 12.5515 27.1043 12.5515C27.1719 12.4187 27.2394 12.2637 27.2619 12.0423ZM31.4954 12.95H31.4729L31.5405 12.8836C31.518 12.9058 31.4954 12.9279 31.4954 12.95ZM31.4279 13.0165C31.4504 12.9943 31.4504 12.9722 31.4954 12.95L31.4279 13.0165ZM25.8658 15.7617V15.9167C25.8658 15.9167 25.8658 15.9167 25.8883 15.9388L25.9108 15.9167C25.9784 15.8503 26.0009 15.7617 26.0234 15.6732C26.2936 14.9204 26.5413 14.1677 26.8116 13.415C26.8116 13.3928 26.8341 13.3707 26.8341 13.3264C26.8341 13.3043 26.8566 13.26 26.8116 13.26C26.789 13.26 26.7665 13.3043 26.744 13.3264C26.6539 13.5699 26.5639 13.7913 26.4963 14.0349C26.3612 14.3891 26.2486 14.7655 26.0684 15.0976L25.8658 15.7617ZM27.3745 13.4371C27.352 13.4592 27.352 13.4814 27.3295 13.4814C27.3295 13.5035 27.352 13.5257 27.3745 13.5257C27.3745 13.5257 27.397 13.5035 27.397 13.4814C27.4196 13.4592 27.397 13.4371 27.3745 13.4371ZM31.0451 13.5699L30.9775 13.6142C31 13.5921 31.0225 13.5699 31.0451 13.5699ZM30.9775 13.6142C30.9775 13.6364 30.955 13.6585 30.9325 13.6806C30.9325 13.6585 30.955 13.6364 30.9775 13.6142ZM27.1944 14.0127V13.9684C27.1719 13.9906 27.1719 13.9906 27.1493 14.0127C27.1493 14.0349 27.1493 14.057 27.1719 14.0349C27.1944 14.0349 27.1944 14.0349 27.1944 14.0127ZM26.9917 14.5219C26.9692 14.5441 26.9692 14.5441 26.9917 14.5662C27.0142 14.5662 27.0142 14.5662 27.0367 14.5441V14.5219C27.0142 14.5219 27.0142 14.5219 26.9917 14.5219ZM29.6264 15.3411C29.6039 15.3632 29.5813 15.3854 29.5588 15.3854C29.5813 15.3632 29.6039 15.3411 29.6264 15.3411ZM26.3612 16.1602V16.1381C26.3612 16.1381 26.3612 16.1381 26.3387 16.1381C26.3387 16.1602 26.3387 16.1824 26.3612 16.1602ZM28.6356 16.4702C28.7256 16.4038 28.7707 16.3374 28.8157 16.2488C28.7256 16.3152 28.6581 16.3816 28.6356 16.4702ZM25.4604 17.1565C25.5955 16.9351 25.6631 16.7137 25.7081 16.4481C25.528 16.6473 25.4604 16.8908 25.4604 17.1565ZM27.8024 16.5145V16.4923C27.8024 16.4702 27.7799 16.4702 27.7799 16.5145C27.7573 16.5145 27.7573 16.5366 27.7573 16.5587C27.5997 16.6694 27.5096 16.8023 27.4421 16.9794C27.5997 16.8687 27.6898 16.7359 27.7573 16.5587C27.7573 16.5366 27.7799 16.5366 27.8024 16.5145ZM25.573 18.3078C25.5505 18.3299 25.573 18.352 25.573 18.3963C25.6181 18.3742 25.6406 18.3742 25.6631 18.3742C25.7757 18.2635 25.8433 18.1085 25.8658 17.9535C25.8883 17.7986 25.9333 17.6436 26.0009 17.5107C26.1135 17.2672 26.2035 17.0015 26.2711 16.758C26.2711 16.7359 26.2711 16.6916 26.2261 16.6916C26.2261 16.6916 26.2036 16.7137 26.2036 16.7359L26.0684 17.1122C26.0234 17.2451 25.9558 17.4 25.8658 17.5107C25.7081 17.7543 25.6406 18.0421 25.573 18.3078ZM25.1452 18.0864C25.2803 17.7986 25.3929 17.5107 25.4604 17.1787C25.2578 17.4443 25.1902 17.7543 25.1452 18.0864C24.9875 18.3078 24.7849 18.9498 24.7849 19.2376C24.8074 19.2376 24.8299 19.1933 24.8299 19.1712C24.9425 18.817 25.0776 18.4627 25.1452 18.0864ZM26.9467 17.7321C27.0593 17.5772 27.1719 17.4222 27.2619 17.2229C27.1268 17.3336 27.0367 17.4443 26.9467 17.555C26.7215 17.8871 26.4738 18.1971 26.181 18.4406C26.0234 18.5956 25.9108 18.7727 25.8433 18.9941C25.8207 19.0826 25.8207 19.1712 25.7757 19.2376C25.7532 19.2819 25.7532 19.304 25.7982 19.3262C25.7982 19.3262 25.8207 19.304 25.8433 19.304C25.9558 19.1712 26.0684 19.0384 26.1585 18.8834C26.2711 18.6841 26.4062 18.4627 26.5638 18.2635L26.9467 17.7321ZM26.9241 18.7505C26.9467 18.7284 26.9467 18.6841 26.9241 18.662C26.9016 18.6398 26.8566 18.662 26.8341 18.6841L26.4287 19.1712C26.2261 19.459 26.0009 19.7247 25.7757 19.9682C25.7307 20.0125 25.6856 20.0568 25.6406 20.1232C25.6406 20.1232 25.6181 20.1453 25.6406 20.1675C25.6406 20.1896 25.6631 20.1896 25.6631 20.2117C25.7081 20.2117 25.7532 20.1896 25.7757 20.1675C25.9108 20.0568 26.0234 19.9239 26.136 19.7911C26.3612 19.5254 26.5864 19.2376 26.8116 18.9498C26.8566 18.9055 26.9016 18.817 26.9241 18.7505Z" fill="#C8C8C8"/>
<path d="M37.7159 7.68087C37.7609 7.54803 37.7609 7.41519 37.7159 7.26022C37.6933 7.1938 37.7159 7.10524 37.7834 7.03882C38.0762 6.72887 38.3239 6.37464 38.6842 6.10897C38.7968 6.04255 38.9094 5.93186 38.9994 5.8433C39.2246 5.64405 39.4723 5.48907 39.72 5.35623C39.7651 5.33409 39.8101 5.31195 39.8551 5.31195C39.9677 5.26768 40.0578 5.28982 40.0578 5.35623C40.0803 5.42265 40.0128 5.44479 39.9677 5.48907L39.7425 5.71046C39.8551 5.66618 39.9452 5.64405 40.0578 5.62191C40.1254 5.59977 40.1929 5.59977 40.2379 5.66618C40.2605 5.71046 40.283 5.75474 40.2605 5.82116C40.2154 5.954 40.1254 6.02041 40.0353 6.10897L39.8101 6.30823C39.7651 6.3525 39.7651 6.39678 39.8101 6.44106H39.7876C39.7651 6.52962 39.72 6.59604 39.6299 6.66246C39.4498 6.79529 39.2922 6.97241 39.1345 7.12738C39.0219 7.21594 38.9319 7.3045 38.7968 7.34878C38.7742 7.23808 38.7292 7.32664 38.6842 7.34878C38.5491 7.45947 38.4139 7.57017 38.3013 7.70301L38.1662 7.83584C38.0311 7.94654 37.9185 7.94654 37.7834 7.8137C37.7384 7.79156 37.7159 7.74728 37.7159 7.68087ZM38.6842 7.41519V7.34878C38.7292 7.34878 38.7742 7.34878 38.7968 7.34878L38.7742 7.43733C38.7517 7.45947 38.7292 7.48161 38.7067 7.48161C38.6616 7.48161 38.6616 7.43733 38.6842 7.41519ZM40.1704 12.308C40.283 12.2859 40.3956 12.2859 40.3731 12.3301C40.328 12.3965 40.2605 12.3965 40.2154 12.4187C39.5399 12.6622 38.8418 12.8615 38.1437 13.0607C37.5582 13.2157 36.9727 13.4371 36.4098 13.6806C36.027 13.8356 35.6216 13.9906 35.2163 14.1234C34.9461 14.212 34.6758 14.2784 34.3831 14.3448C34.3831 14.367 34.3606 14.367 34.3606 14.367C33.7526 14.4555 33.3022 14.1013 33.2346 13.5035C33.2346 13.4371 33.2121 13.3485 33.2121 13.26C33.1446 13.0386 33.2121 12.8172 33.3247 12.6179C33.5949 12.1973 33.8877 11.7766 34.2255 11.4003C34.4732 11.1346 34.6758 10.8689 34.9235 10.6475C35.0136 10.559 35.1262 10.4926 35.2388 10.4704C35.3964 10.4704 35.4415 10.5147 35.3739 10.6475C35.3739 10.6697 35.3514 10.6918 35.3514 10.714C35.3514 10.7804 35.3739 10.7804 35.419 10.7582C35.509 10.714 35.5541 10.7361 35.6216 10.7804C35.6892 10.8468 35.7117 10.9132 35.6892 11.0018C35.6892 11.0682 35.6441 11.1346 35.5991 11.201C35.5315 11.2896 35.464 11.356 35.3739 11.4446C35.2838 11.5774 35.1713 11.7102 35.1938 11.8873C35.1938 11.998 35.1262 12.0866 35.0361 12.153C34.8785 12.308 34.7659 12.5072 34.6308 12.6844C34.5858 12.7286 34.5632 12.8172 34.5407 12.8836C34.5182 12.9279 34.5633 12.9943 34.6308 12.9943L34.901 12.9279C35.2613 12.8172 35.6216 12.7065 35.9594 12.5737C36.1396 12.5072 36.3197 12.4408 36.4773 12.3523C36.8151 12.1752 37.1529 12.0645 37.5357 11.998C37.7159 11.9759 37.896 11.9316 38.0762 11.8652C38.2113 11.7988 38.3689 11.7545 38.504 11.6881C38.9544 11.511 39.4048 11.511 39.8777 11.4224H40.0353C40.1028 11.4224 40.1479 11.4888 40.1479 11.5331C40.1254 11.5995 40.0803 11.6217 40.0353 11.6217C39.4723 11.7102 38.9319 11.8652 38.3914 12.0202C37.5357 12.2416 36.7025 12.5515 35.8918 12.9058C35.3739 13.1271 34.856 13.3043 34.3381 13.4371C34.293 13.4592 34.2705 13.4592 34.248 13.4814C34.2255 13.4814 34.1804 13.5035 34.203 13.5478C34.203 13.5699 34.2255 13.5921 34.2705 13.5921H34.3381C34.3155 13.6142 34.2705 13.6364 34.2705 13.6585C34.2705 13.7028 34.3155 13.7028 34.3381 13.7028C34.6984 13.6364 35.0136 13.5478 35.3289 13.3485H35.1487C35.4865 13.1714 35.8243 12.9943 36.2071 12.9058L36.1846 12.9279C36.1396 12.9722 36.117 12.9943 36.072 13.0386C36.1846 13.0386 36.2972 12.9943 36.3873 12.9058C36.3197 12.9058 36.2521 12.9279 36.1846 12.9279C36.4548 12.7508 36.7701 12.6622 37.0628 12.5515C37.1979 12.4851 37.3556 12.4408 37.4907 12.4187C37.4682 12.463 37.4231 12.5072 37.3781 12.5515C37.3105 12.5515 37.243 12.5737 37.1979 12.6179C37.2655 12.5958 37.3105 12.5958 37.3781 12.5515C37.5132 12.5515 37.6483 12.5072 37.7609 12.4187C37.8735 12.4408 37.9636 12.3965 38.0762 12.3744C38.5491 12.2416 39.0219 12.1309 39.4723 11.998C39.5849 11.9759 39.675 11.9538 39.7651 11.9095C39.8101 11.9095 39.8326 11.8873 39.8551 11.8652L39.8326 11.8209C39.8101 11.8209 39.7651 11.8209 39.7425 11.8209C39.8326 11.7766 39.9227 11.7545 40.0353 11.7545C40.1254 11.7766 40.1929 11.8209 40.283 11.8431C40.328 11.8873 40.3731 11.9316 40.3731 11.998C40.3731 12.0645 40.328 12.1087 40.283 12.1309C40.1929 12.1752 40.1028 12.1973 40.0128 12.2416C39.4048 12.3965 38.7968 12.5737 38.1888 12.7508C37.4456 12.95 36.725 13.26 36.0044 13.5478C35.6441 13.6806 35.3064 13.8356 34.9235 13.9463C34.6984 14.0127 34.4732 14.057 34.2255 14.1013L34.0904 14.1677C34.0904 14.1677 34.0678 14.1677 34.0904 14.1898C34.0904 14.212 34.0904 14.2341 34.1129 14.2341C34.1804 14.2563 34.248 14.2563 34.3155 14.2341C34.6758 14.1898 35.0136 14.0791 35.3289 13.9684C35.8018 13.7692 36.2521 13.5921 36.725 13.415C37.3556 13.1493 38.0311 12.9279 38.6842 12.7508C39.1571 12.6401 39.6074 12.5072 40.0578 12.3523C40.1028 12.3301 40.1479 12.3301 40.1704 12.308ZM39.4948 11.8652V11.8873L39.2471 11.9316C39.3147 11.9095 39.4048 11.8873 39.4948 11.8652ZM38.9994 11.998L39.2471 11.9316C39.1571 11.9538 39.0895 11.9759 38.9994 11.998ZM38.7517 12.0645C38.8193 12.0202 38.9094 11.998 38.9994 11.998C38.9094 12.0423 38.8193 12.0423 38.7517 12.0645ZM38.3013 12.1752C38.4365 12.1087 38.5941 12.0866 38.7517 12.0645C38.6166 12.1309 38.459 12.1752 38.3013 12.1752ZM37.8735 12.308C38.0086 12.2194 38.1662 12.1973 38.3013 12.1752C38.1662 12.2637 38.0311 12.308 37.8735 12.308ZM37.8735 12.308C37.8285 12.3523 37.7834 12.3965 37.7384 12.4187H37.4907C37.6258 12.3523 37.7384 12.308 37.8735 12.308ZM34.9461 13.415L35.1262 13.3485H35.1487L34.9461 13.415ZM34.9461 13.415C34.901 13.4371 34.8335 13.4371 34.7659 13.4592C34.8335 13.4371 34.8785 13.415 34.9461 13.415Z" fill="#C8C8C8"/>
<path d="M49.956 12.2416C49.9335 12.2637 49.8884 12.2859 49.9109 12.308C49.956 12.5072 49.7983 12.5294 49.6632 12.5958C49.2354 12.7729 48.7625 12.9279 48.3121 13.0607C46.9835 13.5035 45.6324 13.8577 44.2813 14.1677C43.5382 14.3448 42.795 14.4555 42.0294 14.4998H41.6016C41.3313 14.4555 41.0611 14.4555 40.7909 14.4555C40.5432 14.4555 40.318 14.4334 40.0928 14.367C39.665 14.2563 39.3047 13.8577 39.2596 13.4371C39.2371 13.1714 39.2371 12.9279 39.2596 12.6622C39.2821 12.5294 39.3272 12.3965 39.3947 12.2637C39.5073 11.998 39.6424 11.7766 39.8226 11.5553C40.0703 11.2674 40.318 11.0018 40.5657 10.7361C40.8584 10.4704 41.1287 10.2269 41.5115 10.1162C41.579 10.0941 41.6241 10.0498 41.6691 10.0276C41.9168 9.82838 42.2096 9.7841 42.4798 9.73983H42.9752C43.2229 9.73983 43.4256 9.82838 43.6282 9.93908C43.7408 10.0055 43.8309 10.0941 43.8759 10.2269C43.9885 10.4704 44.0786 10.7361 44.0786 11.0018C44.1011 11.201 44.0561 11.356 43.921 11.4888C43.8309 11.6217 43.7183 11.7545 43.6508 11.8873C43.6057 11.9759 43.5382 12.0202 43.4706 12.0645C43.313 12.153 43.1553 12.0645 43.1103 11.9095C43.0878 11.7324 43.1103 11.5774 43.2004 11.4224L43.3355 11.201C43.4256 11.046 43.3805 10.9575 43.2454 10.9132C43.0878 10.8689 42.9302 10.8468 42.7725 10.8468C42.5023 10.8911 42.2546 10.9575 42.0069 11.1125C41.8267 11.2232 41.6466 11.3339 41.489 11.4888C41.0611 11.8873 40.6333 12.2859 40.318 12.7729C40.1604 12.9943 40.1604 13.1493 40.4756 13.1714C40.8359 13.2378 41.1962 13.2157 41.6691 13.2378C42.0744 13.26 42.5699 13.2157 43.0878 13.1271C43.4706 13.0607 43.8534 12.9722 44.2362 12.8836C44.6641 12.7951 45.0694 12.6844 45.4973 12.5958C46.0828 12.4851 46.6232 12.308 47.1862 12.1752C47.3438 12.1309 47.5014 12.0866 47.6591 11.998C47.7041 11.9759 47.7717 11.9316 47.8167 11.9316L49.348 11.5331C49.4606 11.511 49.5506 11.4888 49.6632 11.4888C49.7758 11.4667 49.9335 11.5774 49.8659 11.7102C49.8434 11.8209 49.8884 11.9095 49.956 11.998C50.0235 12.0645 50.0235 12.153 49.956 12.2416ZM41.489 10.4926V10.5368C41.489 10.5368 41.489 10.5368 41.5115 10.5368C41.5565 10.5147 41.6241 10.5147 41.6691 10.4926C41.9619 10.3376 42.2546 10.2712 42.5699 10.249C42.75 10.249 42.9527 10.249 43.1328 10.2269H43.2454C43.2905 10.2048 43.313 10.1826 43.313 10.1605C43.313 10.1383 43.2905 10.0941 43.2679 10.0719C43.2454 10.0498 43.2229 10.0276 43.1779 10.0276C43.0653 10.0055 42.9527 9.98336 42.9076 9.98336C42.6149 9.96122 42.4122 10.0276 42.187 10.0719C42.142 10.0941 42.0745 10.1162 42.0294 10.1605C41.9168 10.2712 41.7817 10.3154 41.6691 10.3819C41.6016 10.404 41.534 10.4483 41.489 10.4926ZM43.1779 10.7361C43.2229 10.7361 43.2905 10.7361 43.2905 10.6697C43.2905 10.6475 43.2454 10.6254 43.2004 10.6254C42.8851 10.559 42.5924 10.6033 42.2771 10.714C42.2096 10.7361 42.1195 10.7804 42.0519 10.8911C42.2321 10.8468 42.3447 10.8247 42.4798 10.8025C42.705 10.7582 42.9527 10.7361 43.1779 10.7361ZM41.3088 11.4667C41.2863 11.4888 41.2863 11.4888 41.3088 11.511C41.3088 11.511 41.3088 11.4888 41.3313 11.4888C41.3313 11.4888 41.3539 11.4667 41.3539 11.4446C41.3539 11.4667 41.3313 11.4667 41.3088 11.4667ZM48.7174 12.153L48.7625 12.1309C48.7625 12.1087 48.7625 12.0866 48.7174 12.1087L48.6949 12.1309C48.6949 12.1309 48.6949 12.153 48.7174 12.153ZM40.6558 12.1309C40.6558 12.1087 40.6558 12.1087 40.6333 12.1309C40.6333 12.153 40.6333 12.153 40.6107 12.1752C40.6333 12.1752 40.6333 12.153 40.6558 12.153V12.1309ZM48.3346 12.9058C48.4472 12.8836 48.5373 12.8615 48.6274 12.7951C48.4697 12.8172 48.3346 12.8615 48.177 12.8836C48.1545 12.8836 48.1094 12.8836 48.1094 12.9279C48.1995 12.9722 48.2671 12.9279 48.3346 12.9058ZM45.2721 13.0386C45.182 13.0607 45.0694 13.0386 45.0019 13.105C45.092 13.105 45.182 13.0829 45.2721 13.0386ZM47.3438 13.2157C47.3663 13.1936 47.3888 13.1714 47.3663 13.1493C47.3663 13.1271 47.3213 13.1271 47.3213 13.1271C47.2537 13.1271 47.1862 13.1493 47.1411 13.1714C46.3755 13.3928 45.6099 13.5921 44.8217 13.7692C43.7408 14.0349 42.6374 14.2563 41.5115 14.1898C41.2638 14.1898 41.0161 14.1677 40.7684 14.1677C40.6107 14.1456 40.4756 14.1456 40.3405 14.1456C40.318 14.1456 40.2955 14.1677 40.273 14.1677C40.2955 14.1898 40.2955 14.212 40.318 14.212L40.5657 14.2784C41.2638 14.367 41.9619 14.367 42.6599 14.3227C43.313 14.2784 43.9435 14.1234 44.574 13.9684C45.3622 13.7692 46.1503 13.5478 46.916 13.3485L47.3438 13.2157ZM40.2054 13.5478C40.2054 13.5699 40.2504 13.5921 40.273 13.5921C40.926 13.6806 41.579 13.6806 42.2321 13.6806H42.5248C42.4798 13.7028 42.4348 13.7028 42.3672 13.7028C42.1645 13.7028 41.9393 13.7028 41.7142 13.7249C41.6691 13.7249 41.6241 13.7471 41.579 13.7471C41.579 13.7471 41.5565 13.7692 41.579 13.7692V13.7913C41.6466 13.8356 41.7142 13.8356 41.8042 13.8356C42.3897 13.8135 42.9752 13.7692 43.5607 13.6364C43.6733 13.6142 43.7859 13.5921 43.8985 13.5257C43.9885 13.5257 44.0786 13.5035 44.1462 13.4592C44.0786 13.4814 43.9885 13.4814 43.8985 13.5257H43.5382C43.8309 13.415 44.1462 13.3707 44.4389 13.2821C44.5065 13.26 44.574 13.2821 44.6416 13.1936C44.5065 13.1714 44.3939 13.2157 44.3038 13.2378C43.1553 13.5035 42.0069 13.6585 40.8134 13.5478C40.6333 13.5257 40.4756 13.5257 40.2955 13.5257C40.2504 13.5257 40.2054 13.5035 40.2054 13.5478ZM43.4031 13.5699C43.4031 13.5478 43.4256 13.5478 43.4481 13.5478C43.4706 13.5478 43.5156 13.5478 43.5382 13.5257C43.5156 13.5478 43.4706 13.5478 43.4481 13.5699H43.4031ZM43.0202 13.6142C42.9977 13.6142 42.9752 13.6364 42.9752 13.6364H42.9527C42.9527 13.6142 42.9752 13.6142 42.9752 13.6142H43.0202Z" fill="#C8C8C8"/>
<path d="M59.1601 10.9796C59.4529 11.0018 59.4754 11.046 59.4303 11.3117C59.4303 11.356 59.4078 11.4003 59.4303 11.4446C59.4303 11.511 59.3853 11.5774 59.3403 11.6217C59.2502 11.666 59.1826 11.7102 59.1151 11.7766C58.98 11.8652 58.8223 11.9316 58.7323 12.0645C58.6647 12.0866 58.5972 12.1087 58.5296 12.153C57.7189 12.6401 56.8857 13.0829 56.0525 13.5478C55.5346 13.8356 55.0167 14.0791 54.4312 14.2563C54.2736 14.3005 54.0934 14.3227 53.9133 14.3227C53.7556 14.3005 53.6431 14.2563 53.5305 14.1456C53.2602 13.9463 53.1026 13.6806 53.0801 13.3485C53.0801 13.2157 53.0801 13.0829 53.0125 12.95C52.9675 12.8836 52.9225 12.8615 52.8549 12.8836C52.7648 12.9279 52.6973 12.95 52.6297 12.9943C52.2694 13.1936 51.9091 13.3928 51.5263 13.5699C50.8958 13.902 50.2653 14.2341 49.5672 14.4112C49.4321 14.4555 49.297 14.4776 49.1393 14.4998C48.9592 14.5219 48.779 14.4555 48.6439 14.3005C48.5989 14.2341 48.5313 14.1898 48.4863 14.1234C48.3287 13.9684 48.2611 13.7913 48.2386 13.5699C48.2161 13.4592 48.2161 13.3485 48.1935 13.2378C48.1485 12.8172 48.2836 12.4408 48.5764 12.1087C48.6439 12.0202 48.734 11.9316 48.8241 11.8431C49.1844 11.4224 49.6122 11.046 50.1076 10.7582C50.2653 10.6475 50.4229 10.559 50.558 10.4261C50.6706 10.3154 50.8282 10.2269 50.9633 10.1605C51.3011 9.96122 51.6614 9.76197 52.0667 9.65127C52.0667 9.65127 52.0893 9.65127 52.1118 9.62913C52.2244 9.60699 53.0125 9.54057 53.1251 9.56271C53.4404 9.60699 53.6431 9.80624 53.8007 10.0719C53.8457 10.1605 53.8908 10.2933 53.9358 10.404C53.9808 10.4704 54.0034 10.559 54.0484 10.6254C54.0709 10.6697 54.1159 10.6918 54.1835 10.6697C54.206 10.6697 54.2285 10.6475 54.2736 10.6254C54.4537 10.5811 54.6114 10.6475 54.6339 10.8247C54.6564 11.0018 54.6789 11.1346 54.814 11.2453C54.8365 11.2674 54.8591 11.3117 54.8591 11.356C54.9041 11.4446 54.814 11.511 54.814 11.5995C54.7915 11.6881 54.9041 11.7545 54.9041 11.8652C54.8816 11.9095 54.8591 11.9538 54.814 11.9759C54.5213 12.1752 54.4312 12.5072 54.2736 12.7951C54.2511 12.8172 54.2511 12.8615 54.2736 12.9058C54.3186 12.9279 54.3411 12.9279 54.3862 12.9279C54.6789 12.8393 54.9717 12.7508 55.2194 12.5958C55.6247 12.3523 56.0525 12.1309 56.4579 11.9095L56.6155 11.8431C56.9758 11.5995 57.3812 11.4446 57.7415 11.2232C57.8315 11.1789 57.8991 11.1346 57.9892 11.1125C58.2369 11.0682 58.4395 10.9575 58.6647 10.8468C58.7773 10.7804 58.9124 10.714 59.0475 10.6697C59.1151 10.6475 59.1826 10.714 59.1826 10.7582C59.1601 10.8468 59.1376 10.8911 59.0926 10.9575C59.1151 10.9575 59.1376 10.9575 59.1601 10.9796ZM51.4587 10.3597C51.2786 10.404 51.121 10.4704 51.0084 10.6033C51.1885 10.559 51.3462 10.4926 51.4587 10.3597C51.5263 10.3376 51.5939 10.3376 51.6614 10.3154C52.0667 10.2048 52.4946 10.0941 52.8999 10.0276C52.9675 10.0276 53.0351 10.0055 53.1251 9.98336C53.1476 9.96122 53.1476 9.93908 53.1476 9.91694C53.1476 9.87266 53.1476 9.82838 53.1026 9.80624C53.0576 9.80624 53.0125 9.78411 52.9675 9.78411C52.7198 9.78411 52.4721 9.85052 52.2019 9.91694C51.9316 9.98336 51.6614 10.0719 51.4587 10.2933V10.3597ZM53.1927 10.4261C53.1702 10.404 53.1476 10.3819 53.1026 10.3819H53.0351C52.6973 10.3819 52.1118 10.5368 51.8416 10.6918L51.774 10.7582V10.7804C51.774 10.8025 51.774 10.8025 51.7965 10.8025C51.8866 10.8247 51.9542 10.8025 52.0217 10.7582C52.337 10.6475 52.6522 10.559 52.99 10.5147C53.035 10.5147 53.0801 10.4926 53.1251 10.4926C53.1702 10.4926 53.1927 10.4704 53.1927 10.4261ZM53.3728 10.8911C53.4404 10.7804 53.3953 10.6918 53.2602 10.6475C53.1702 10.6254 53.0801 10.6033 52.99 10.6254C52.4496 10.6918 51.9316 10.8689 51.5038 11.2232C51.4813 11.2453 51.4587 11.2453 51.4587 11.2674C51.3462 11.2896 51.2561 11.356 51.166 11.4224C50.8733 11.6438 50.5805 11.8431 50.3103 12.0866C50.0401 12.3301 49.7698 12.5958 49.5221 12.8615C49.4771 12.9058 49.4546 12.95 49.4546 12.9943C49.4321 13.0165 49.4546 13.0607 49.4771 13.0829C49.4771 13.105 49.5221 13.105 49.5447 13.105C49.5897 13.105 49.6347 13.0829 49.6573 13.0607C49.8149 12.9722 49.9725 12.9279 50.1527 12.8836C50.3553 12.8172 50.5355 12.7286 50.7156 12.6179C50.7607 12.5737 50.8282 12.5294 50.8958 12.5072C51.3462 12.2637 51.7965 12.0202 52.2694 11.7988C52.4946 11.666 52.7198 11.5331 52.945 11.3781C53.1251 11.2453 53.2602 11.0682 53.3728 10.8911ZM58.8674 11.1346L58.9124 11.0903C58.8899 11.0903 58.8899 11.0903 58.8674 11.1125C58.8449 11.1125 58.8449 11.1346 58.8449 11.1346H58.8674ZM56.2327 12.5515C56.1651 12.5958 56.0976 12.6179 56.0525 12.6844C56.1201 12.6622 56.1877 12.6179 56.2327 12.5515ZM52.6072 12.8615C52.6297 12.8393 52.6297 12.8172 52.6297 12.8172C52.6297 12.7729 52.5847 12.7729 52.5622 12.7729C52.5396 12.7729 52.4946 12.7729 52.4721 12.7951C52.2244 12.9058 51.9767 13.0165 51.7515 13.1493C51.3687 13.3928 50.9408 13.5699 50.5355 13.7692C50.1301 13.9463 49.7248 14.1234 49.2744 14.1898L49.1393 14.2563C49.1168 14.2563 49.1168 14.2784 49.1168 14.3005C49.1168 14.3227 49.1393 14.3227 49.1393 14.3448H49.2519C49.4546 14.3448 49.6122 14.3005 49.7924 14.2341C50.1527 14.1234 50.513 13.9684 50.8507 13.7913L51.819 13.3264C52.0667 13.1936 52.2919 13.0165 52.5622 12.9058C52.5847 12.8836 52.6072 12.8836 52.6072 12.8615ZM49.1844 13.0165V13.0386C49.2069 13.0386 49.2294 13.0165 49.2294 13.0165C49.2294 13.0165 49.2294 12.9943 49.2519 12.9943C49.2294 12.9943 49.2069 12.9943 49.1844 13.0165ZM56.548 13.1493C56.5705 13.1493 56.638 13.1271 56.6155 13.0829C56.6155 13.0165 56.548 13.0386 56.5254 13.0386C56.4129 13.0607 56.3228 13.105 56.2327 13.1714C56.1201 13.2378 56.03 13.3264 55.8949 13.3707C55.6247 13.4371 55.377 13.5699 55.1293 13.7028C54.814 13.8577 54.4988 13.9684 54.161 14.0127C54.0934 14.0127 54.0484 14.0349 53.9808 14.057C53.9583 14.057 53.9583 14.0791 53.9583 14.1013C53.9583 14.1234 53.9583 14.1456 53.9808 14.1456L54.0709 14.1677C54.2736 14.1898 54.4537 14.1456 54.6114 14.0791C55.0617 13.902 55.4896 13.747 55.8949 13.5257L56.1651 13.3485C56.2327 13.3043 56.2327 13.2378 56.2327 13.1714C56.3453 13.1936 56.4354 13.2157 56.548 13.1493ZM50.513 13.2378C50.558 13.2157 50.5805 13.2157 50.603 13.2157C50.6256 13.2157 50.6256 13.1936 50.6481 13.1714H50.603C50.558 13.1936 50.5355 13.2157 50.513 13.2378ZM49.0267 13.7028C49.0267 13.7913 49.0718 13.8577 49.1618 13.8356C49.342 13.8356 49.5221 13.7692 49.7023 13.7028C49.8374 13.6585 49.905 13.5478 49.905 13.415C50.0401 13.5035 50.1977 13.5035 50.3328 13.3707L50.4454 13.3043C50.2427 13.26 50.0626 13.2821 49.905 13.415C49.6347 13.4371 49.387 13.5257 49.1168 13.5921C49.0492 13.5921 49.0042 13.6364 49.0267 13.7028ZM54.0709 13.415C54.0484 13.415 54.0484 13.4371 54.0484 13.4592L54.0934 13.4814C54.206 13.4814 54.3186 13.4371 54.4087 13.3928C54.4312 13.3928 54.4312 13.3707 54.4312 13.3707L54.3862 13.3264C54.2736 13.3485 54.161 13.3485 54.0709 13.415ZM54.2285 13.5478C54.1835 13.5257 54.0934 13.5257 54.0709 13.5699C54.0709 13.5921 54.0709 13.6142 54.0934 13.6142C54.1385 13.6364 54.1835 13.6142 54.2285 13.5921V13.5478Z" fill="#C8C8C8"/>
<path d="M68.3949 12.3965C68.4174 12.5072 68.3273 12.5958 68.1922 12.6622C68.1247 12.6844 68.0571 12.6844 67.9895 12.7065C67.269 12.8172 66.5484 12.9058 65.8052 12.9279C65.5575 12.95 65.2873 12.9722 65.0396 12.9722C64.6117 12.9943 64.1839 12.9279 63.756 12.9058H63.4858C63.4633 12.9058 63.4408 12.9279 63.4408 12.9279C63.4408 12.95 63.4633 12.9722 63.4858 12.9722C63.5309 12.9943 63.5759 13.0165 63.6209 13.0165C63.9587 13.105 64.319 13.1271 64.6793 13.1271C65.1747 13.1493 65.6701 13.1271 66.1655 13.0829C66.6384 13.0165 67.1113 12.9722 67.5842 12.9279C67.7418 12.9058 67.8995 12.8615 68.0571 12.8393H68.1021C68.1021 12.8615 68.1021 12.8836 68.0796 12.8836L68.0121 12.9279C67.922 12.95 67.8319 12.9722 67.7418 12.9722C66.6835 13.1271 65.6026 13.2378 64.5442 13.2378C64.0713 13.2378 63.5984 13.1936 63.148 13.105C62.7427 13.0165 62.3824 12.8172 62.0897 12.5294C61.887 12.3301 61.7744 12.1087 61.7068 11.8209C61.6618 11.5331 61.5492 11.4888 61.324 11.6881L60.9862 11.9538C60.9637 11.9759 60.9412 11.998 60.9187 12.0202H60.9862C60.9637 12.0423 60.9412 12.0645 60.9187 12.0866C60.7611 12.1752 60.5809 12.2859 60.4233 12.4187C60.3782 12.463 60.3107 12.4851 60.2431 12.5072L60.108 12.6401C60.0855 12.6844 60.0405 12.7286 59.9954 12.7508H59.9279C59.8828 12.7951 59.8378 12.8615 59.8153 12.9279C59.7928 13.0607 59.6802 13.105 59.6126 13.1936C59.5676 13.2378 59.5225 13.26 59.4775 13.26C59.3874 13.2378 59.3199 13.2821 59.3199 13.3707C59.2973 13.4592 59.2298 13.5478 59.1622 13.6142C58.9145 13.9242 58.5993 14.1898 58.3065 14.4555C58.239 14.5441 58.0138 14.4998 57.9687 14.367C57.9237 14.3005 57.9012 14.2341 57.8111 14.1898C57.721 14.1456 57.6985 14.0791 57.721 13.9906C57.721 13.8356 57.7436 13.6585 57.676 13.5035C57.6535 13.3928 57.721 13.2821 57.7661 13.1936C58.0813 12.6622 58.3966 12.153 58.7119 11.6438C58.8019 11.4888 58.892 11.356 59.0046 11.201C59.0947 11.0903 59.2298 11.0903 59.2973 11.2453C59.3199 11.2896 59.3199 11.356 59.3424 11.4003C59.4099 11.511 59.5 11.5553 59.6126 11.4888C59.6802 11.4667 59.7252 11.4224 59.7928 11.3781C59.9954 11.201 60.1981 11.0239 60.4008 10.8689C60.6935 10.6254 60.9862 10.3597 61.3465 10.2048C61.4366 10.1826 61.5267 10.1383 61.6393 10.1162C61.7969 10.0719 61.932 10.1162 61.9996 10.2712C62.1572 10.5811 62.3148 10.8689 62.3374 11.2232C62.3374 11.2674 62.3374 11.3117 62.3599 11.3781C62.3599 11.4888 62.4274 11.5774 62.54 11.6217C62.5851 11.6438 62.6301 11.6659 62.6526 11.6881C63.1706 11.8431 63.6885 11.9759 64.2289 11.9759C64.4316 11.9759 64.6343 11.998 64.8369 11.998C64.9495 12.0202 65.0621 12.0202 65.1747 11.998C65.3999 11.9759 65.6476 11.9759 65.8728 11.9759C66.4583 11.998 67.0438 11.8873 67.6293 11.9095C67.7418 11.9095 67.877 11.8652 68.0121 11.8431H68.2147C68.2598 11.8431 68.3048 11.8652 68.3048 11.9316C68.3273 11.9759 68.3048 12.0202 68.2598 12.0423C68.1922 12.0866 68.1247 12.1309 68.0346 12.1309C67.967 12.153 67.8995 12.153 67.8319 12.1752C67.8094 12.1752 67.7869 12.1973 67.7869 12.1973C67.7869 12.2416 67.8094 12.2637 67.8544 12.2637C67.922 12.2416 68.0121 12.2416 68.1021 12.2416C68.2823 12.1973 68.3724 12.2859 68.3949 12.3965ZM61.5492 10.4704H61.5717L61.5492 10.4483V10.4704ZM67.2464 12.2859C67.2915 12.2859 67.3365 12.2859 67.3365 12.2416C66.9087 12.2637 66.5033 12.308 66.098 12.308C65.2873 12.3301 64.4992 12.3523 63.711 12.2859C63.666 12.2637 63.5984 12.2416 63.5984 12.3301C63.7786 12.4187 63.9812 12.3965 64.1614 12.463H63.8686C64.0263 12.5515 64.2064 12.5737 64.3866 12.5737C65.1297 12.6179 65.8728 12.5958 66.6159 12.5072C66.6609 12.4851 66.706 12.4851 66.751 12.463H65.8503C65.9629 12.4187 66.098 12.4187 66.2331 12.3965C66.5484 12.3744 66.8636 12.3523 67.1564 12.308C67.2014 12.308 67.2239 12.308 67.2464 12.2859ZM66.8636 12.4408H67.0212C66.9987 12.4187 66.9762 12.4187 66.9537 12.4187C66.9312 12.4187 66.8861 12.4187 66.8636 12.4408ZM64.1614 12.463C64.7243 12.4851 65.2873 12.463 65.8503 12.463C65.7377 12.4851 65.6476 12.5072 65.535 12.5072H64.4541C64.364 12.5072 64.2515 12.4851 64.1614 12.463Z" fill="#C8C8C8"/>
<path d="M71.3399 7.68087C71.3849 7.54803 71.3849 7.41519 71.3399 7.26022C71.3174 7.1938 71.3399 7.10524 71.4075 7.03882C71.7002 6.72887 71.9479 6.37464 72.3082 6.10897C72.4208 6.04255 72.5334 5.93186 72.6235 5.8433C72.8486 5.64405 73.0964 5.48907 73.3441 5.35623C73.3891 5.33409 73.4341 5.31195 73.4792 5.31195C73.5918 5.26768 73.6818 5.28982 73.6818 5.35623C73.7044 5.42265 73.6368 5.44479 73.5918 5.48907L73.3666 5.71046C73.4792 5.66618 73.5692 5.64405 73.6818 5.62191C73.7494 5.59977 73.817 5.59977 73.862 5.66618C73.8845 5.71046 73.907 5.75474 73.8845 5.82116C73.8395 5.954 73.7494 6.02041 73.6593 6.10897L73.4341 6.30823C73.3891 6.3525 73.3891 6.39678 73.4341 6.44106H73.4116C73.3891 6.52962 73.3441 6.59604 73.254 6.66246C73.0738 6.79529 72.9162 6.97241 72.7586 7.12738C72.646 7.21594 72.5559 7.3045 72.4208 7.34878C72.3983 7.23808 72.3532 7.32664 72.3082 7.34878C72.1731 7.45947 72.038 7.57017 71.9254 7.70301L71.7903 7.83584C71.6552 7.94654 71.5426 7.94654 71.4075 7.8137C71.3624 7.79156 71.3399 7.74728 71.3399 7.68087ZM72.3082 7.41519V7.34878C72.3532 7.34878 72.3983 7.34878 72.4208 7.34878L72.3983 7.43733C72.3758 7.45947 72.3532 7.48161 72.3307 7.48161C72.2857 7.48161 72.2857 7.43733 72.3082 7.41519ZM73.7944 12.308C73.907 12.2859 74.0196 12.2859 73.9971 12.3301C73.9521 12.3965 73.8845 12.3965 73.8395 12.4187C73.1639 12.6622 72.4658 12.8615 71.7677 13.0607C71.1823 13.2157 70.5968 13.4371 70.0338 13.6806C69.651 13.8356 69.2457 13.9906 68.8403 14.1234C68.5701 14.212 68.2999 14.2784 68.0071 14.3448C68.0071 14.367 67.9846 14.367 67.9846 14.367C67.3766 14.4555 66.9262 14.1013 66.8587 13.5035C66.8587 13.4371 66.8362 13.3485 66.8362 13.26C66.7686 13.0386 66.8362 12.8172 66.9488 12.6179C67.219 12.1973 67.5117 11.7766 67.8495 11.4003C68.0972 11.1346 68.2999 10.8689 68.5476 10.6475C68.6377 10.559 68.7503 10.4926 68.8629 10.4704C69.0205 10.4704 69.0655 10.5147 68.998 10.6475C68.998 10.6697 68.9754 10.6918 68.9754 10.714C68.9754 10.7804 68.998 10.7804 69.043 10.7582C69.1331 10.714 69.1781 10.7361 69.2457 10.7804C69.3132 10.8468 69.3357 10.9132 69.3132 11.0018C69.3132 11.0682 69.2682 11.1346 69.2231 11.201C69.1556 11.2896 69.088 11.356 68.998 11.4446C68.9079 11.5774 68.7953 11.7102 68.8178 11.8873C68.8178 11.998 68.7503 12.0866 68.6602 12.153C68.5026 12.308 68.39 12.5072 68.2548 12.6844C68.2098 12.7286 68.1873 12.8172 68.1648 12.8836C68.1423 12.9279 68.1873 12.9943 68.2548 12.9943L68.5251 12.9279C68.8854 12.8172 69.2457 12.7065 69.5834 12.5737C69.7636 12.5072 69.9437 12.4408 70.1014 12.3523C70.4392 12.1752 70.7769 12.0645 71.1598 11.998C71.3399 11.9759 71.52 11.9316 71.7002 11.8652C71.8353 11.7988 71.9929 11.7545 72.1281 11.6881C72.5784 11.511 73.0288 11.511 73.5017 11.4224H73.6593C73.7269 11.4224 73.7719 11.4888 73.7719 11.5331C73.7494 11.5995 73.7044 11.6217 73.6593 11.6217C73.0964 11.7102 72.5559 11.8652 72.0155 12.0202C71.1598 12.2416 70.3266 12.5515 69.5159 12.9058C68.998 13.1271 68.48 13.3043 67.9621 13.4371C67.9171 13.4592 67.8945 13.4592 67.872 13.4814C67.8495 13.4814 67.8045 13.5035 67.827 13.5478C67.827 13.5699 67.8495 13.5921 67.8945 13.5921H67.9621C67.9396 13.6142 67.8945 13.6364 67.8945 13.6585C67.8945 13.7028 67.9396 13.7028 67.9621 13.7028C68.3224 13.6364 68.6377 13.5478 68.9529 13.3485H68.7728C69.1106 13.1714 69.4483 12.9943 69.8312 12.9058L69.8086 12.9279C69.7636 12.9722 69.7411 12.9943 69.696 13.0386C69.8086 13.0386 69.9212 12.9943 70.0113 12.9058C69.9437 12.9058 69.8762 12.9279 69.8086 12.9279C70.0789 12.7508 70.3941 12.6622 70.6869 12.5515C70.822 12.4851 70.9796 12.4408 71.1147 12.4187C71.0922 12.463 71.0472 12.5072 71.0021 12.5515C70.9346 12.5515 70.867 12.5737 70.822 12.6179C70.8895 12.5958 70.9346 12.5958 71.0021 12.5515C71.1372 12.5515 71.2723 12.5072 71.3849 12.4187C71.4975 12.4408 71.5876 12.3965 71.7002 12.3744C72.1731 12.2416 72.646 12.1309 73.0964 11.998C73.209 11.9759 73.299 11.9538 73.3891 11.9095C73.4341 11.9095 73.4567 11.8873 73.4792 11.8652L73.4567 11.8209C73.4341 11.8209 73.3891 11.8209 73.3666 11.8209C73.4567 11.7766 73.5467 11.7545 73.6593 11.7545C73.7494 11.7766 73.8169 11.8209 73.907 11.8431C73.9521 11.8873 73.9971 11.9316 73.9971 11.998C73.9971 12.0645 73.9521 12.1087 73.907 12.1309C73.8169 12.1752 73.7269 12.1973 73.6368 12.2416C73.0288 12.3965 72.4208 12.5737 71.8128 12.7508C71.0697 12.95 70.3491 13.26 69.6285 13.5478C69.2682 13.6806 68.9304 13.8356 68.5476 13.9463C68.3224 14.0127 68.0972 14.057 67.8495 14.1013L67.7144 14.1677C67.7144 14.1677 67.6919 14.1677 67.7144 14.1898C67.7144 14.212 67.7144 14.2341 67.7369 14.2341C67.8045 14.2563 67.872 14.2563 67.9396 14.2341C68.2999 14.1898 68.6377 14.0791 68.9529 13.9684C69.4258 13.7692 69.8762 13.5921 70.3491 13.415C70.9796 13.1493 71.6552 12.9279 72.3082 12.7508C72.7811 12.6401 73.2315 12.5072 73.6818 12.3523C73.7269 12.3301 73.7719 12.3301 73.7944 12.308ZM73.1189 11.8652V11.8873L72.8712 11.9316C72.9387 11.9095 73.0288 11.8873 73.1189 11.8652ZM72.6235 11.998L72.8712 11.9316C72.7811 11.9538 72.7135 11.9759 72.6235 11.998ZM72.3758 12.0645C72.4433 12.0202 72.5334 11.998 72.6235 11.998C72.5334 12.0423 72.4433 12.0423 72.3758 12.0645ZM71.9254 12.1752C72.0605 12.1087 72.2181 12.0866 72.3758 12.0645C72.2406 12.1309 72.083 12.1752 71.9254 12.1752ZM71.4975 12.308C71.6326 12.2194 71.7903 12.1973 71.9254 12.1752C71.7903 12.2637 71.6552 12.308 71.4975 12.308ZM71.4975 12.308C71.4525 12.3523 71.4075 12.3965 71.3624 12.4187H71.1147C71.2498 12.3523 71.3624 12.308 71.4975 12.308ZM68.5701 13.415L68.7503 13.3485H68.7728L68.5701 13.415ZM68.5701 13.415C68.5251 13.4371 68.4575 13.4371 68.39 13.4592C68.4575 13.4371 68.5026 13.415 68.5701 13.415Z" fill="#C8C8C8"/>
</svg>
