<svg width="362" height="80" viewBox="0 0 362 80" fill="none" xmlns="http://www.w3.org/2000/svg">
<path d="M168.732 10.9882L149.866 53.0984L131 10.9882H132.98L150.031 48.9258L166.862 10.9882H168.732Z" fill="#423F32"/>
<path d="M173.328 10.9882H175.143V52.165H173.328V10.9882Z" fill="#423F32"/>
<path d="M190.443 12.5804H180.928V10.9882H201.664V12.5804H192.259V52.165H190.443V12.5804Z" fill="#423F32"/>
<path d="M241.584 52.165H239.659L231.849 36.463H209.957L202.312 52.165H200.387L220.958 10L241.584 52.165ZM231.189 34.8708L220.848 13.953L210.727 34.8708H231.189Z" fill="#423F32"/>
<path d="M259.802 10.9882H274.488V12.5804H261.617V34.8708H272.342V36.463H261.617V52.165H259.802V10.9882Z" fill="#423F32"/>
<path d="M280.267 10.9882H282.082V50.5729H313.214V52.165H280.267V10.9882Z" fill="#423F32"/>
<path d="M343.684 52.8788L334.993 32.7296L326.193 52.8788L308.096 10.9882H310.022L326.248 48.4317L334.058 30.5335L325.588 10.9882H327.458L335.158 28.7217L342.914 10.9882H344.619L336.038 30.7531L343.794 48.5964L360.075 10.9882H362L343.684 52.8788Z" fill="#423F32"/>
<path d="M297.734 48.9074C295.241 48.9074 292.986 48.3034 290.969 47.0956C288.952 45.8511 287.375 44.2224 286.239 42.2093C285.102 40.1596 284.533 37.9452 284.533 35.5661C284.533 33.2236 285.102 31.0458 286.239 29.0327C287.412 27.0196 288.989 25.4274 290.969 24.2562C292.986 23.0483 295.222 22.4444 297.679 22.4444C300.099 22.4444 302.3 23.0483 304.28 24.2562C306.297 25.4274 307.873 27.0196 309.01 29.0327C310.147 31.0458 310.715 33.2236 310.715 35.5661C310.715 38.0184 310.165 40.2694 309.065 42.3191C307.965 44.3322 306.425 45.9426 304.445 47.1505C302.501 48.3217 300.265 48.9074 297.734 48.9074ZM297.734 47.3701C299.824 47.3701 301.731 46.8394 303.455 45.7779C305.178 44.7165 306.517 43.3073 307.47 41.5504C308.46 39.757 308.955 37.7988 308.955 35.6759C308.955 33.5896 308.46 31.6497 307.47 29.8562C306.48 28.0627 305.123 26.6353 303.4 25.5738C301.676 24.5124 299.769 23.9817 297.679 23.9817C295.589 23.9817 293.664 24.5307 291.904 25.6287C290.181 26.6902 288.805 28.1176 287.779 29.9111C286.789 31.7046 286.294 33.6445 286.294 35.7308C286.294 37.8171 286.789 39.757 287.779 41.5504C288.805 43.3073 290.181 44.7165 291.904 45.7779C293.664 46.8394 295.608 47.3701 297.734 47.3701Z" fill="#423F32"/>
<path d="M159.804 68.3535C159.897 68.4098 160.048 68.466 160.256 68.5223C160.469 68.5739 160.708 68.5997 160.97 68.5997C161.233 68.5997 161.452 68.5317 161.628 68.3957C161.803 68.2596 161.89 68.0767 161.89 67.8468C161.89 67.4903 161.655 67.1995 161.184 66.9743C161.064 66.9227 160.877 66.8524 160.625 66.7632C160.374 66.6694 160.196 66.6014 160.092 66.5592C159.988 66.5123 159.864 66.4489 159.722 66.3692C159.585 66.2847 159.478 66.2003 159.402 66.1159C159.21 65.9142 159.114 65.6679 159.114 65.377C159.114 64.9502 159.298 64.6124 159.665 64.3638C160.037 64.1152 160.519 63.9909 161.11 63.9909C161.559 63.9909 161.981 64.0542 162.375 64.1808C162.391 64.2934 162.4 64.4435 162.4 64.6312C162.4 64.8141 162.369 65.0604 162.309 65.37L161.833 65.4193C161.773 64.8892 161.699 64.5936 161.611 64.5327C161.48 64.4341 161.239 64.3849 160.888 64.3849C160.543 64.3849 160.275 64.4459 160.083 64.5678C159.892 64.6851 159.796 64.8587 159.796 65.0885C159.796 65.2199 159.826 65.3372 159.886 65.4404C159.947 65.5436 160.056 65.6397 160.215 65.7289C160.374 65.818 160.5 65.8813 160.593 65.9188C160.73 65.9798 160.921 66.0549 161.168 66.144C161.414 66.2331 161.606 66.3105 161.743 66.3762C161.879 66.4419 162.027 66.5287 162.186 66.6366C162.493 66.857 162.646 67.176 162.646 67.5935C162.646 68.011 162.471 68.3488 162.12 68.6068C161.775 68.8648 161.302 68.9938 160.699 68.9938C160.376 68.9938 160.053 68.9609 159.73 68.8953C159.413 68.8249 159.18 68.7569 159.032 68.6912C159.016 68.6349 159.007 68.5012 159.007 68.2901C159.007 68.079 159.04 67.8234 159.106 67.5232L159.574 67.502C159.618 67.8398 159.654 68.0579 159.681 68.1564C159.714 68.255 159.755 68.3206 159.804 68.3535Z" fill="#423F32"/>
<path d="M163.134 68.9305L163.077 68.649C163.285 68.6021 163.411 68.5646 163.454 68.5364C163.504 68.5083 163.55 68.4449 163.594 68.3464L165.434 63.9909H166.116L167.996 68.459C168.024 68.5294 168.185 68.588 168.481 68.6349L168.448 68.9305H166.534L166.485 68.649C166.868 68.5833 167.06 68.5059 167.06 68.4168C167.06 68.3793 167.049 68.33 167.027 68.269L166.666 67.3543H164.539L164.12 68.3535C164.098 68.4098 164.087 68.4496 164.087 68.4731C164.087 68.4919 164.103 68.5036 164.136 68.5083L164.719 68.642L164.686 68.9305H163.134ZM164.695 66.9813H166.526L165.721 65.0041C165.683 64.9056 165.664 64.8376 165.664 64.8H165.582L164.695 66.9813Z" fill="#423F32"/>
<path d="M173.236 64.8986C173.236 64.6922 173.189 64.5538 173.096 64.4834C173.009 64.413 172.792 64.3614 172.447 64.3286L172.497 64.0542H174.427L174.46 64.3286L173.95 64.413C173.852 64.4318 173.8 64.4646 173.794 64.5115C173.789 64.5303 173.786 64.5585 173.786 64.596V67.1221C173.786 67.6991 173.603 68.1564 173.236 68.4942C172.869 68.8272 172.319 68.9938 171.585 68.9938C170.172 68.9938 169.466 68.3886 169.466 67.1784V64.7649C169.466 64.6194 169.433 64.5209 169.367 64.4693C169.307 64.4177 169.132 64.3708 168.842 64.3286L168.891 64.0542H170.903L170.936 64.3286L170.427 64.413C170.317 64.4318 170.263 64.4928 170.263 64.596V67.0728C170.263 67.5513 170.378 67.9125 170.608 68.1564C170.838 68.4004 171.21 68.5223 171.725 68.5223C172.245 68.5223 172.625 68.391 172.866 68.1283C173.113 67.8656 173.236 67.549 173.236 67.1784V64.8986ZM173.08 62.858L173.014 63.0057L171.363 63.6601L171.158 63.4068L172.587 62.4991L173.08 62.858Z" fill="#423F32"/>
<path d="M174.98 68.9305L174.931 68.656C175.221 68.6138 175.396 68.5669 175.456 68.5153C175.522 68.4637 175.555 68.3652 175.555 68.2198V64.7649C175.555 64.6194 175.522 64.5209 175.456 64.4693C175.396 64.4177 175.221 64.3708 174.931 64.3286L174.98 64.0542H177.551C178.022 64.0542 178.429 64.1199 178.774 64.2512C179.119 64.3779 179.388 64.5538 179.579 64.7789C179.952 65.2105 180.138 65.7312 180.138 66.341C180.138 67.0118 179.93 67.5959 179.514 68.0931C179.306 68.3464 179.015 68.5505 178.643 68.7053C178.276 68.8554 177.852 68.9305 177.37 68.9305H174.98ZM176.351 68.2761C176.351 68.3793 176.409 68.4402 176.524 68.459C176.907 68.5247 177.197 68.5575 177.395 68.5575C178.002 68.5575 178.46 68.3722 178.766 68.0016C179.073 67.6311 179.226 67.1362 179.226 66.5169C179.226 66.1276 179.166 65.7898 179.045 65.5037C178.93 65.2175 178.774 64.9994 178.577 64.8493C178.205 64.5678 177.8 64.4271 177.362 64.4271H176.351V68.2761Z" fill="#423F32"/>
<path d="M180.835 68.9305L180.786 68.656C181.076 68.6138 181.251 68.5669 181.311 68.5153C181.377 68.4637 181.41 68.3652 181.41 68.2198V64.7649C181.41 64.6194 181.377 64.5209 181.311 64.4693C181.251 64.4177 181.076 64.3708 180.786 64.3286L180.835 64.0542H184.662C184.695 64.2277 184.712 64.4013 184.712 64.5749C184.712 64.7438 184.706 64.9361 184.695 65.1519L184.227 65.2011C184.15 64.8774 184.096 64.6757 184.063 64.596C184.03 64.5116 183.992 64.467 183.948 64.4623C183.816 64.4482 183.649 64.4388 183.447 64.4341L182.207 64.413V66.3059H183.439C183.51 66.3059 183.597 66.1393 183.701 65.8063L183.956 65.8274C183.956 66.1698 183.962 66.4091 183.973 66.5451C183.989 66.6811 183.997 66.7632 183.997 66.7914C184.003 66.8195 184.014 66.8875 184.03 66.9954C184.052 67.1033 184.066 67.1784 184.071 67.2206L183.775 67.2628C183.688 66.9954 183.628 66.8312 183.595 66.7703C183.567 66.7093 183.534 66.6788 183.496 66.6788H182.207V68.5716L182.938 68.5646C183.556 68.5646 183.934 68.5364 184.071 68.4801C184.088 68.4707 184.098 68.466 184.104 68.466C184.197 68.4426 184.317 68.1658 184.465 67.6357L184.917 67.6709C184.923 67.7507 184.925 67.8937 184.925 68.1001C184.925 68.3019 184.895 68.5786 184.835 68.9305H180.835Z" fill="#423F32"/>
<path d="M187.709 68.9305L187.66 68.656C187.95 68.6138 188.125 68.5669 188.185 68.5153C188.251 68.4637 188.284 68.3652 188.284 68.2198V64.7649C188.284 64.6194 188.251 64.5209 188.185 64.4693C188.125 64.4177 187.95 64.3708 187.66 64.3286L187.709 64.0542H190C190.581 64.0542 191.016 64.1761 191.306 64.4201C191.597 64.6593 191.742 64.9994 191.742 65.4404C191.742 65.8813 191.55 66.2589 191.167 66.5732C190.789 66.8875 190.236 67.0447 189.508 67.0447H189.081V68.3886C189.081 68.5012 189.135 68.5622 189.245 68.5716L190.074 68.656L190.041 68.9305H187.709ZM189.081 66.6717H189.442C189.803 66.6717 190.118 66.599 190.386 66.4536C190.704 66.2801 190.863 65.9611 190.863 65.4967C190.863 65.0651 190.731 64.7719 190.469 64.6171C190.25 64.4904 190.011 64.4271 189.754 64.4271H189.245C189.135 64.4271 189.081 64.4834 189.081 64.596V66.6717Z" fill="#423F32"/>
<path d="M192.297 68.9305L192.248 68.656C192.538 68.6138 192.713 68.5669 192.773 68.5153C192.839 68.4637 192.872 68.3652 192.872 68.2198V64.7649C192.872 64.6194 192.839 64.5209 192.773 64.4693C192.713 64.4177 192.538 64.3708 192.248 64.3286L192.297 64.0542H196.124C196.157 64.2277 196.174 64.4013 196.174 64.5749C196.174 64.7438 196.168 64.9361 196.157 65.1519L195.689 65.2011C195.612 64.8774 195.558 64.6757 195.525 64.596C195.492 64.5116 195.453 64.467 195.41 64.4623C195.278 64.4482 195.111 64.4388 194.909 64.4341L193.668 64.413V66.3059H194.9C194.972 66.3059 195.059 66.1393 195.163 65.8063L195.418 65.8274C195.418 66.1698 195.423 66.4091 195.434 66.5451C195.451 66.6811 195.459 66.7632 195.459 66.7914C195.464 66.8195 195.475 66.8875 195.492 66.9954C195.514 67.1033 195.527 67.1784 195.533 67.2206L195.237 67.2628C195.15 66.9954 195.089 66.8312 195.056 66.7703C195.029 66.7093 194.996 66.6788 194.958 66.6788H193.668V68.5716L194.399 68.5646C195.018 68.5646 195.396 68.5364 195.533 68.4801C195.549 68.4707 195.56 68.466 195.566 68.466C195.659 68.4426 195.779 68.1658 195.927 67.6357L196.379 67.6709C196.384 67.7507 196.387 67.8937 196.387 68.1001C196.387 68.3019 196.357 68.5786 196.297 68.9305H192.297Z" fill="#423F32"/>
<path d="M197.157 68.9305L197.108 68.656C197.398 68.6138 197.574 68.5669 197.634 68.5153C197.7 68.4637 197.732 68.3652 197.732 68.2198V64.7649C197.732 64.6194 197.7 64.5209 197.634 64.4693C197.574 64.4177 197.398 64.3708 197.108 64.3286L197.157 64.0542H199.441C200.027 64.0542 200.462 64.1574 200.747 64.3638C201.031 64.5702 201.174 64.8493 201.174 65.2011C201.174 65.5529 201.062 65.8602 200.837 66.1229C200.613 66.3809 200.298 66.5685 199.892 66.6858V66.721C199.947 66.7351 200.007 66.7867 200.073 66.8758L201.231 68.3675C201.313 68.4707 201.393 68.5411 201.469 68.5786C201.552 68.6162 201.697 68.642 201.905 68.656L201.855 68.9305H200.689L199.063 66.7914H198.529V68.3886C198.529 68.4918 198.584 68.5528 198.693 68.5716L199.145 68.656L199.112 68.9305H197.157ZM198.529 66.4325H198.981C199.413 66.4325 199.739 66.3528 199.958 66.1933C200.183 66.0291 200.295 65.7312 200.295 65.2996C200.295 64.718 199.925 64.4271 199.186 64.4271H198.693C198.584 64.4271 198.529 64.4834 198.529 64.596V66.4325Z" fill="#423F32"/>
<path d="M203.02 68.3535C203.113 68.4098 203.264 68.466 203.472 68.5223C203.686 68.5739 203.924 68.5997 204.187 68.5997C204.45 68.5997 204.669 68.5317 204.844 68.3957C205.019 68.2596 205.107 68.0767 205.107 67.8468C205.107 67.4903 204.871 67.1995 204.4 66.9743C204.28 66.9227 204.094 66.8524 203.842 66.7632C203.59 66.6694 203.412 66.6014 203.308 66.5592C203.204 66.5123 203.081 66.4489 202.938 66.3692C202.801 66.2847 202.695 66.2003 202.618 66.1159C202.426 65.9142 202.33 65.6679 202.33 65.377C202.33 64.9502 202.514 64.6124 202.881 64.3638C203.253 64.1152 203.735 63.9909 204.326 63.9909C204.775 63.9909 205.197 64.0542 205.591 64.1808C205.608 64.2934 205.616 64.4435 205.616 64.6312C205.616 64.8141 205.586 65.0604 205.525 65.37L205.049 65.4193C204.989 64.8892 204.915 64.5936 204.827 64.5327C204.696 64.4341 204.455 64.3849 204.105 64.3849C203.76 64.3849 203.491 64.4459 203.3 64.5678C203.108 64.6851 203.012 64.8587 203.012 65.0885C203.012 65.2199 203.042 65.3372 203.103 65.4404C203.163 65.5436 203.272 65.6397 203.431 65.7289C203.59 65.818 203.716 65.8813 203.809 65.9188C203.946 65.9798 204.137 66.0549 204.384 66.144C204.63 66.2331 204.822 66.3105 204.959 66.3762C205.096 66.4419 205.243 66.5287 205.402 66.6366C205.709 66.857 205.862 67.176 205.862 67.5935C205.862 68.011 205.687 68.3488 205.337 68.6068C204.992 68.8648 204.518 68.9938 203.916 68.9938C203.593 68.9938 203.27 68.9609 202.946 68.8953C202.629 68.8249 202.396 68.7569 202.248 68.6912C202.232 68.6349 202.224 68.5012 202.224 68.2901C202.224 68.079 202.257 67.8234 202.322 67.5232L202.79 67.502C202.834 67.8398 202.87 68.0579 202.897 68.1564C202.93 68.255 202.971 68.3206 203.02 68.3535Z" fill="#423F32"/>
<path d="M209.11 68.9938C208.283 68.9938 207.645 68.7757 207.196 68.3394C206.747 67.8984 206.523 67.298 206.523 66.5381C206.523 65.7734 206.761 65.1589 207.237 64.6945C207.714 64.2254 208.365 63.9909 209.192 63.9909C210.024 63.9909 210.665 64.2066 211.114 64.6382C211.563 65.0651 211.788 65.6608 211.788 66.4255C211.788 67.1854 211.549 67.8046 211.073 68.2831C210.597 68.7569 209.942 68.9938 209.11 68.9938ZM209.225 68.6209C209.521 68.6209 209.778 68.5622 209.997 68.4449C210.222 68.3277 210.397 68.1658 210.523 67.9594C210.758 67.5607 210.876 67.0588 210.876 66.4536C210.876 65.8485 210.72 65.3489 210.408 64.9548C210.101 64.5608 209.66 64.3638 209.085 64.3638C208.79 64.3638 208.53 64.4224 208.305 64.5397C208.086 64.6523 207.916 64.8094 207.796 65.0111C207.555 65.4005 207.435 65.8977 207.435 66.5029C207.435 67.1033 207.588 67.6076 207.895 68.0157C208.201 68.4191 208.645 68.6209 209.225 68.6209Z" fill="#423F32"/>
<path d="M212.485 68.9305L212.436 68.656C212.726 68.6138 212.901 68.5669 212.962 68.5153C213.027 68.4637 213.06 68.3652 213.06 68.2198V64.7649C213.06 64.6194 213.027 64.5209 212.962 64.4693C212.901 64.4177 212.726 64.3708 212.436 64.3286L212.485 64.0542H214.054L216.863 67.6006H216.92V64.9056C216.92 64.6945 216.874 64.5538 216.781 64.4834C216.693 64.413 216.477 64.3614 216.132 64.3286L216.181 64.0542H218.111L218.144 64.3286L217.635 64.413C217.526 64.4318 217.471 64.4928 217.471 64.596V68.9305H216.962L213.676 64.7649H213.61V68.2268C213.61 68.3441 213.635 68.4309 213.684 68.4872C213.739 68.5434 213.835 68.5786 213.972 68.5927L214.547 68.656L214.514 68.9305H212.485Z" fill="#423F32"/>
<path d="M218.558 68.9305L218.501 68.649C218.709 68.6021 218.835 68.5646 218.878 68.5364C218.928 68.5083 218.974 68.4449 219.018 68.3464L220.858 63.9909H221.54L223.42 68.459C223.448 68.5294 223.609 68.588 223.905 68.6349L223.872 68.9305H221.958L221.909 68.649C222.292 68.5833 222.484 68.5059 222.484 68.4168C222.484 68.3793 222.473 68.33 222.451 68.269L222.09 67.3543H219.963L219.544 68.3535C219.522 68.4098 219.511 68.4496 219.511 68.4731C219.511 68.4919 219.527 68.5036 219.56 68.5083L220.143 68.642L220.11 68.9305H218.558ZM220.119 66.9813H221.95L221.145 65.0041C221.107 64.9056 221.088 64.8376 221.088 64.8H221.006L220.119 66.9813Z" fill="#423F32"/>
<path d="M224.356 68.9305L224.307 68.656C224.597 68.6138 224.772 68.5669 224.832 68.5153C224.898 68.4637 224.931 68.3652 224.931 68.2198V64.7649C224.931 64.6194 224.898 64.5209 224.832 64.4693C224.772 64.4177 224.597 64.3708 224.307 64.3286L224.356 64.0542H226.368L226.401 64.3286L225.892 64.413C225.782 64.4318 225.728 64.4928 225.728 64.596V68.5716L226.459 68.5646C227.066 68.5552 227.422 68.5388 227.526 68.5153C227.614 68.4918 227.767 68.1306 227.986 67.4317L228.438 67.4669C228.444 67.5466 228.446 67.7108 228.446 67.9594C228.446 68.2033 228.416 68.527 228.356 68.9305H224.356Z" fill="#423F32"/>
<path d="M228.936 68.9305L228.887 68.656C229.177 68.6138 229.352 68.5669 229.412 68.5153C229.478 68.4637 229.511 68.3652 229.511 68.2198V64.7649C229.511 64.6194 229.478 64.5209 229.412 64.4693C229.352 64.4177 229.177 64.3708 228.887 64.3286L228.936 64.0542H230.948L230.981 64.3286L230.472 64.413C230.362 64.4318 230.308 64.4928 230.308 64.596V68.3886C230.308 68.4918 230.362 68.5528 230.472 68.5716L230.981 68.656L230.948 68.9305H228.936Z" fill="#423F32"/>
<path d="M232.278 65.3419L231.761 65.2926C231.75 65.0956 231.744 64.8986 231.744 64.7015C231.744 64.4998 231.769 64.284 231.818 64.0542H235.999V64.2371L232.861 68.3605C232.79 68.4496 232.73 68.5036 232.681 68.5223L232.697 68.5646H233.929C234.509 68.5646 234.865 68.5481 234.997 68.5153C235.084 68.4918 235.238 68.1306 235.457 67.4317L235.908 67.4669C235.914 67.5466 235.917 67.7108 235.917 67.9594C235.917 68.2033 235.886 68.527 235.826 68.9305H231.58V68.7475L234.709 64.6241C234.78 64.535 234.841 64.4811 234.89 64.4623L234.874 64.413H234.085C233.335 64.413 232.845 64.4271 232.615 64.4553C232.533 64.46 232.42 64.7555 232.278 65.3419Z" fill="#423F32"/>
<path d="M236.396 68.9305L236.339 68.649C236.547 68.6021 236.673 68.5646 236.717 68.5364C236.766 68.5083 236.813 68.4449 236.856 68.3464L238.696 63.9909H239.378L241.259 68.459C241.286 68.5294 241.448 68.588 241.743 68.6349L241.71 68.9305H239.797L239.747 68.649C240.131 68.5833 240.322 68.5059 240.322 68.4168C240.322 68.3793 240.311 68.33 240.29 68.269L239.928 67.3543H237.801L237.382 68.3535C237.36 68.4098 237.349 68.4496 237.349 68.4731C237.349 68.4919 237.366 68.5036 237.398 68.5083L237.982 68.642L237.949 68.9305H236.396ZM237.957 66.9813H239.789L238.984 65.0041C238.945 64.9056 238.926 64.8376 238.926 64.8H238.844L237.957 66.9813Z" fill="#423F32"/>
<path d="M242.194 68.9305L242.145 68.656C242.435 68.6138 242.611 68.5669 242.671 68.5153C242.736 68.4637 242.769 68.3652 242.769 68.2198V64.7649C242.769 64.6194 242.736 64.5209 242.671 64.4693C242.611 64.4177 242.435 64.3708 242.145 64.3286L242.194 64.0542H244.765C245.236 64.0542 245.644 64.1199 245.989 64.2512C246.334 64.3779 246.602 64.5538 246.794 64.7789C247.166 65.2105 247.352 65.7312 247.352 66.341C247.352 67.0118 247.144 67.5959 246.728 68.0931C246.52 68.3464 246.23 68.5505 245.858 68.7053C245.491 68.8554 245.066 68.9305 244.584 68.9305H242.194ZM243.566 68.2761C243.566 68.3793 243.624 68.4402 243.739 68.459C244.122 68.5247 244.412 68.5575 244.609 68.5575C245.217 68.5575 245.674 68.3722 245.981 68.0016C246.287 67.6311 246.441 67.1362 246.441 66.5169C246.441 66.1276 246.38 65.7898 246.26 65.5037C246.145 65.2175 245.989 64.9994 245.792 64.8493C245.42 64.5678 245.014 64.4271 244.576 64.4271H243.566V68.2761Z" fill="#423F32"/>
<path d="M247.754 68.9305L247.696 68.649C247.905 68.6021 248.03 68.5646 248.074 68.5364C248.124 68.5083 248.17 68.4449 248.214 68.3464L250.054 63.9909H250.735L252.616 68.459C252.644 68.5294 252.805 68.588 253.101 68.6349L253.068 68.9305H251.154L251.105 68.649C251.488 68.5833 251.68 68.5059 251.68 68.4168C251.68 68.3793 251.669 68.33 251.647 68.269L251.286 67.3543H249.158L248.74 68.3535C248.718 68.4098 248.707 68.4496 248.707 68.4731C248.707 68.4919 248.723 68.5036 248.756 68.5083L249.339 68.642L249.306 68.9305H247.754ZM249.314 66.9813H251.146L250.341 65.0041C250.303 64.9056 250.284 64.8376 250.284 64.8H250.202L249.314 66.9813Z" fill="#423F32"/>
<path d="M253.889 69.8945L253.667 69.7115C253.891 69.4816 254.004 69.2706 254.004 69.0782C254.004 68.9703 253.954 68.8671 253.856 68.7686C253.763 68.6701 253.716 68.5739 253.716 68.4801C253.716 68.3816 253.76 68.2995 253.848 68.2338C253.941 68.1682 254.056 68.1353 254.193 68.1353C254.329 68.1353 254.447 68.1869 254.546 68.2901C254.644 68.3886 254.694 68.5294 254.694 68.7123C254.694 69.1345 254.425 69.5286 253.889 69.8945Z" fill="#423F32"/>
<path d="M259.63 68.9938L257.799 64.6382C257.755 64.5397 257.703 64.4764 257.643 64.4482C257.582 64.4154 257.451 64.3779 257.248 64.3356L257.306 64.0542H259.261L259.294 64.3427L258.71 64.4764C258.672 64.4811 258.653 64.4951 258.653 64.5186C258.653 64.5374 258.664 64.5749 258.686 64.6312L259.951 67.8187C260 67.936 260.025 68.0157 260.025 68.0579H260.107L261.388 64.9267C261.465 64.7438 261.503 64.6241 261.503 64.5678C261.503 64.4787 261.303 64.4013 260.903 64.3356L260.953 64.0542H262.571L262.604 64.3497C262.379 64.3872 262.237 64.4295 262.176 64.4764C262.116 64.5233 262.059 64.6124 262.004 64.7437L260.197 68.9938H259.63Z" fill="#423F32"/>
<path d="M263.016 68.9305L262.967 68.656C263.257 68.6138 263.433 68.5669 263.493 68.5153C263.559 68.4637 263.591 68.3652 263.591 68.2198V64.7649C263.591 64.6194 263.559 64.5209 263.493 64.4693C263.433 64.4177 263.257 64.3708 262.967 64.3286L263.016 64.0542H265.029L265.062 64.3286L264.552 64.413C264.443 64.4318 264.388 64.4928 264.388 64.596V68.3886C264.388 68.4918 264.443 68.5528 264.552 68.5716L265.062 68.656L265.029 68.9305H263.016Z" fill="#423F32"/>
<path d="M265.784 68.9305L265.734 68.656C266.025 68.6138 266.2 68.5669 266.26 68.5153C266.326 68.4637 266.359 68.3652 266.359 68.2198V64.7649C266.359 64.6194 266.326 64.5209 266.26 64.4693C266.2 64.4177 266.025 64.3708 265.734 64.3286L265.784 64.0542H268.354C268.825 64.0542 269.233 64.1199 269.578 64.2512C269.923 64.3779 270.192 64.5538 270.383 64.7789C270.756 65.2105 270.942 65.7312 270.942 66.341C270.942 67.0118 270.734 67.5959 270.317 68.0931C270.109 68.3464 269.819 68.5505 269.447 68.7053C269.08 68.8554 268.656 68.9305 268.174 68.9305H265.784ZM267.155 68.2761C267.155 68.3793 267.213 68.4402 267.328 68.459C267.711 68.5247 268.001 68.5575 268.198 68.5575C268.806 68.5575 269.263 68.3722 269.57 68.0016C269.877 67.6311 270.03 67.1362 270.03 66.5169C270.03 66.1276 269.97 65.7898 269.849 65.5037C269.734 65.2175 269.578 64.9994 269.381 64.8493C269.009 64.5678 268.604 64.4271 268.166 64.4271H267.155V68.2761Z" fill="#423F32"/>
<path d="M271.343 68.9305L271.286 68.649C271.494 68.6021 271.62 68.5646 271.664 68.5364C271.713 68.5083 271.759 68.4449 271.803 68.3464L273.643 63.9909H274.325L276.206 68.459C276.233 68.5294 276.394 68.588 276.69 68.6349L276.657 68.9305H274.744L274.694 68.649C275.078 68.5833 275.269 68.5059 275.269 68.4168C275.269 68.3793 275.258 68.33 275.236 68.269L274.875 67.3543H272.748L272.329 68.3535C272.307 68.4098 272.296 68.4496 272.296 68.4731C272.296 68.4919 272.312 68.5036 272.345 68.5083L272.928 68.642L272.896 68.9305H271.343ZM272.904 66.9813H274.735L273.93 65.0041C273.892 64.9056 273.873 64.8376 273.873 64.8H273.791L272.904 66.9813Z" fill="#423F32"/>
<path d="M279.154 68.9305L279.105 68.656C279.395 68.6138 279.571 68.5669 279.631 68.5153C279.696 68.4637 279.729 68.3652 279.729 68.2198V64.7649C279.729 64.6194 279.696 64.5209 279.631 64.4693C279.571 64.4177 279.395 64.3708 279.105 64.3286L279.154 64.0542H282.982C283.015 64.2277 283.031 64.4013 283.031 64.5749C283.031 64.7438 283.026 64.9361 283.015 65.1519L282.547 65.2011C282.47 64.8774 282.415 64.6757 282.382 64.596C282.349 64.5116 282.311 64.467 282.267 64.4623C282.136 64.4482 281.969 64.4388 281.766 64.4341L280.526 64.413V66.3059H281.758C281.829 66.3059 281.917 66.1393 282.021 65.8063L282.275 65.8274C282.275 66.1698 282.281 66.4091 282.292 66.5451C282.308 66.6811 282.317 66.7632 282.317 66.7914C282.322 66.8195 282.333 66.8875 282.349 66.9954C282.371 67.1033 282.385 67.1784 282.39 67.2206L282.095 67.2628C282.007 66.9954 281.947 66.8312 281.914 66.7703C281.887 66.7093 281.854 66.6788 281.816 66.6788H280.526V68.5716L281.257 68.5646C281.876 68.5646 282.254 68.5364 282.39 68.4801C282.407 68.4707 282.418 68.466 282.423 68.466C282.516 68.4426 282.637 68.1658 282.785 67.6357L283.236 67.6709C283.242 67.7507 283.245 67.8937 283.245 68.1001C283.245 68.3019 283.215 68.5786 283.154 68.9305H279.154Z" fill="#423F32"/>
<path d="M286.167 68.9797C285.439 68.9281 284.877 68.6865 284.483 68.255C284.089 67.8234 283.892 67.2394 283.892 66.5029C283.892 65.7617 284.13 65.1589 284.606 64.6945C285.083 64.2254 285.734 63.9909 286.561 63.9909C287.393 63.9909 288.034 64.2066 288.483 64.6382C288.932 65.0651 289.157 65.6421 289.157 66.3692C289.157 66.9931 289.006 67.5232 288.705 67.9594C288.409 68.3957 287.988 68.6959 287.44 68.8601V68.8882C287.544 68.9211 287.733 69.0219 288.007 69.1908C288.28 69.3644 288.48 69.4512 288.606 69.4512C288.732 69.4512 288.902 69.416 289.116 69.3456L289.304 69.5989C289.184 69.6834 289.085 69.7467 289.009 69.7889C288.784 69.9296 288.573 70 288.376 70C288.179 70 287.982 69.9484 287.785 69.8452C287.593 69.7467 287.424 69.6365 287.276 69.5145C287.133 69.3925 286.961 69.2752 286.758 69.1627C286.556 69.0548 286.359 68.9938 286.167 68.9797ZM286.594 68.6209C286.89 68.6209 287.147 68.5622 287.366 68.4449C287.591 68.3277 287.766 68.1658 287.892 67.9594C288.127 67.5607 288.245 67.0588 288.245 66.4536C288.245 65.8485 288.089 65.3489 287.777 64.9548C287.47 64.5608 287.029 64.3638 286.454 64.3638C286.159 64.3638 285.899 64.4224 285.674 64.5397C285.455 64.6523 285.285 64.8094 285.165 65.0111C284.924 65.4005 284.804 65.8977 284.804 66.5029C284.804 67.1033 284.957 67.6076 285.263 68.0157C285.57 68.4191 286.014 68.6209 286.594 68.6209Z" fill="#423F32"/>
<path d="M294.158 64.8986C294.158 64.6922 294.111 64.5538 294.018 64.4834C293.931 64.413 293.714 64.3614 293.37 64.3286L293.419 64.0542H295.349L295.382 64.3286L294.873 64.413C294.774 64.4318 294.722 64.4646 294.717 64.5115C294.711 64.5303 294.708 64.5585 294.708 64.596V67.1221C294.708 67.6991 294.525 68.1564 294.158 68.4942C293.791 68.8272 293.241 68.9938 292.507 68.9938C291.094 68.9938 290.388 68.3886 290.388 67.1784V64.7649C290.388 64.6194 290.355 64.5209 290.29 64.4693C290.229 64.4177 290.054 64.3708 289.764 64.3286L289.813 64.0542H291.825L291.858 64.3286L291.349 64.413C291.24 64.4318 291.185 64.4928 291.185 64.596V67.0728C291.185 67.5513 291.3 67.9125 291.53 68.1564C291.76 68.4004 292.132 68.5223 292.647 68.5223C293.167 68.5223 293.547 68.391 293.788 68.1283C294.035 67.8656 294.158 67.549 294.158 67.1784V64.8986Z" fill="#423F32"/>
<path d="M295.902 68.9305L295.853 68.656C296.143 68.6138 296.318 68.5669 296.378 68.5153C296.444 68.4637 296.477 68.3652 296.477 68.2198V64.7649C296.477 64.6194 296.444 64.5209 296.378 64.4693C296.318 64.4177 296.143 64.3708 295.853 64.3286L295.902 64.0542H297.914L297.947 64.3286L297.438 64.413C297.328 64.4318 297.274 64.4928 297.274 64.596V68.3886C297.274 68.4918 297.328 68.5528 297.438 68.5716L297.947 68.656L297.914 68.9305H295.902Z" fill="#423F32"/>
<path d="M298.669 68.9305L298.62 68.656C298.91 68.6138 299.085 68.5669 299.145 68.5153C299.211 68.4637 299.244 68.3652 299.244 68.2198V64.7649C299.244 64.6194 299.211 64.5209 299.145 64.4693C299.085 64.4177 298.91 64.3708 298.62 64.3286L298.669 64.0542H300.681L300.714 64.3286L300.205 64.413C300.095 64.4318 300.041 64.4928 300.041 64.596V68.5716L300.772 68.5646C301.38 68.5552 301.735 68.5388 301.839 68.5153C301.927 68.4918 302.08 68.1306 302.299 67.4317L302.751 67.4669C302.757 67.5466 302.759 67.7108 302.759 67.9594C302.759 68.2033 302.729 68.527 302.669 68.9305H298.669Z" fill="#423F32"/>
<path d="M303.249 68.9305L303.2 68.656C303.49 68.6138 303.665 68.5669 303.725 68.5153C303.791 68.4637 303.824 68.3652 303.824 68.2198V64.7649C303.824 64.6194 303.791 64.5209 303.725 64.4693C303.665 64.4177 303.49 64.3708 303.2 64.3286L303.249 64.0542H305.261L305.294 64.3286L304.785 64.413C304.675 64.4318 304.621 64.4928 304.621 64.596V68.3886C304.621 68.4918 304.675 68.5528 304.785 68.5716L305.294 68.656L305.261 68.9305H303.249Z" fill="#423F32"/>
<path d="M306.016 68.9305L305.967 68.656C306.257 68.6138 306.432 68.5669 306.493 68.5153C306.558 68.4637 306.591 68.3652 306.591 68.2198V64.7649C306.591 64.6194 306.558 64.5209 306.493 64.4693C306.432 64.4177 306.257 64.3708 305.967 64.3286L306.016 64.0542H308.185C308.781 64.0542 309.239 64.1574 309.556 64.3638C309.874 64.5655 310.033 64.8493 310.033 65.2152C310.033 65.506 309.939 65.7523 309.753 65.954C309.573 66.151 309.378 66.2777 309.17 66.334V66.3833C309.521 66.4395 309.813 66.5803 310.049 66.8054C310.284 67.0306 310.402 67.305 310.402 67.6287C310.402 67.9477 310.238 68.2456 309.909 68.5223C309.586 68.7944 309.088 68.9305 308.414 68.9305H306.016ZM307.388 66.2355H307.848C308.297 66.2355 308.625 66.1534 308.833 65.9892C309.047 65.8203 309.154 65.5905 309.154 65.2996C309.154 64.718 308.749 64.4271 307.938 64.4271H307.388V66.2355ZM307.388 68.2479C307.388 68.384 307.429 68.466 307.511 68.4942C307.593 68.5411 307.76 68.5646 308.012 68.5646C308.538 68.5646 308.915 68.4848 309.145 68.3253C309.375 68.1658 309.49 67.936 309.49 67.6357C309.49 67.1995 309.285 66.8993 308.874 66.7351C308.672 66.6506 308.442 66.6084 308.185 66.6084H307.388V68.2479Z" fill="#423F32"/>
<path d="M311.101 68.9305L311.052 68.656C311.342 68.6138 311.518 68.5669 311.578 68.5153C311.643 68.4637 311.676 68.3652 311.676 68.2198V64.7649C311.676 64.6194 311.643 64.5209 311.578 64.4693C311.518 64.4177 311.342 64.3708 311.052 64.3286L311.101 64.0542H313.385C313.971 64.0542 314.406 64.1574 314.691 64.3638C314.975 64.5702 315.118 64.8493 315.118 65.2011C315.118 65.5529 315.005 65.8602 314.781 66.1229C314.556 66.3809 314.242 66.5685 313.836 66.6858V66.721C313.891 66.7351 313.951 66.7867 314.017 66.8758L315.175 68.3675C315.257 68.4707 315.337 68.5411 315.413 68.5786C315.496 68.6162 315.641 68.642 315.849 68.656L315.799 68.9305H314.633L313.007 66.7914H312.473V68.3886C312.473 68.4918 312.528 68.5528 312.637 68.5716L313.089 68.656L313.056 68.9305H311.101ZM312.473 66.4325H312.925C313.357 66.4325 313.683 66.3528 313.902 66.1933C314.127 66.0291 314.239 65.7312 314.239 65.2996C314.239 64.718 313.869 64.4271 313.13 64.4271H312.637C312.528 64.4271 312.473 64.4834 312.473 64.596V66.4325Z" fill="#423F32"/>
<path d="M315.995 68.9305L315.938 68.649C316.146 68.6021 316.272 68.5646 316.316 68.5364C316.365 68.5083 316.411 68.4449 316.455 68.3464L318.295 63.9909H318.977L320.857 68.459C320.885 68.5294 321.046 68.588 321.342 68.6349L321.309 68.9305H319.396L319.346 68.649C319.73 68.5833 319.921 68.5059 319.921 68.4168C319.921 68.3793 319.91 68.33 319.888 68.269L319.527 67.3543H317.4L316.981 68.3535C316.959 68.4098 316.948 68.4496 316.948 68.4731C316.948 68.4919 316.964 68.5036 316.997 68.5083L317.58 68.642L317.548 68.9305H315.995ZM317.556 66.9813H319.387L318.582 65.0041C318.544 64.9056 318.525 64.8376 318.525 64.8H318.443L317.556 66.9813Z" fill="#423F32"/>
<path d="M321.793 68.9305L321.744 68.656C322.034 68.6138 322.209 68.5669 322.27 68.5153C322.335 68.4637 322.368 68.3652 322.368 68.2198V64.7649C322.368 64.6194 322.335 64.5209 322.27 64.4693C322.209 64.4177 322.034 64.3708 321.744 64.3286L321.793 64.0542H324.364C324.835 64.0542 325.243 64.1199 325.588 64.2512C325.933 64.3779 326.201 64.5538 326.393 64.7789C326.765 65.2105 326.951 65.7312 326.951 66.341C326.951 67.0118 326.743 67.5959 326.327 68.0931C326.119 68.3464 325.829 68.5505 325.456 68.7053C325.089 68.8554 324.665 68.9305 324.183 68.9305H321.793ZM323.165 68.2761C323.165 68.3793 323.222 68.4402 323.337 68.459C323.721 68.5247 324.011 68.5575 324.208 68.5575C324.816 68.5575 325.273 68.3722 325.58 68.0016C325.886 67.6311 326.039 67.1362 326.039 66.5169C326.039 66.1276 325.979 65.7898 325.859 65.5037C325.744 65.2175 325.588 64.9994 325.391 64.8493C325.018 64.5678 324.613 64.4271 324.175 64.4271H323.165V68.2761Z" fill="#423F32"/>
<path d="M327.353 68.9305L327.295 68.649C327.503 68.6021 327.629 68.5646 327.673 68.5364C327.722 68.5083 327.769 68.4449 327.813 68.3464L329.652 63.9909H330.334L332.215 68.459C332.242 68.5294 332.404 68.588 332.7 68.6349L332.667 68.9305H330.753L330.704 68.649C331.087 68.5833 331.279 68.5059 331.279 68.4168C331.279 68.3793 331.268 68.33 331.246 68.269L330.884 67.3543H328.757L328.338 68.3535C328.316 68.4098 328.305 68.4496 328.305 68.4731C328.305 68.4919 328.322 68.5036 328.355 68.5083L328.938 68.642L328.905 68.9305H327.353ZM328.913 66.9813H330.745L329.94 65.0041C329.902 64.9056 329.882 64.8376 329.882 64.8H329.8L328.913 66.9813Z" fill="#423F32"/>
<path d="M133.053 56.7635V55.884H245.204L247.408 60.674L252.699 49.5802L255.668 55.884H359.907V56.7635H254.942L252.699 51.9558L247.388 63.0506L244.477 56.7635H133.053Z" fill="#D5CB9F"/>
<path fill-rule="evenodd" clip-rule="evenodd" d="M114.523 4.08069L109.849 9.93616C106.529 9.96184 102.971 11.8323 98.9007 14.4519L104.115 4.18898L114.523 4.08116V4.08069ZM17.8667 4.08069L22.5405 9.93616C25.861 9.96184 29.4184 11.8323 33.4892 14.4519L28.2745 4.18898L17.8667 4.08116V4.08069ZM11.7382 32.4525C31.6436 27.8634 48.1935 35.3195 59.3535 45.4359C42.2192 23.5311 31.459 23.6735 11.7382 32.4525Z" fill="#D5CB9F"/>
<path fill-rule="evenodd" clip-rule="evenodd" d="M63.729 37.6213C45.5074 24.0493 29.5951 16.4461 5 29.5761C25.1354 14.9939 43.0294 16.4499 61.9003 29.5761C84.54 45.3239 98.0247 50.8288 122.281 37.6213C102.204 53.2725 82.7575 51.7946 63.729 37.6213Z" stroke="#373435" stroke-width="0.755381" stroke-miterlimit="22.9256"/>
<path fill-rule="evenodd" clip-rule="evenodd" d="M63.729 37.6213C45.5074 24.0493 29.5951 16.4461 5 29.5761C25.1354 14.9939 43.0294 16.4499 61.9003 29.5761C84.54 45.3239 98.0247 50.8288 122.281 37.6213C102.204 53.2725 82.7575 51.7946 63.729 37.6213Z" stroke="#373435" stroke-width="0.755381" stroke-miterlimit="22.9256"/>
<path fill-rule="evenodd" clip-rule="evenodd" d="M96.3857 42.7649C90.115 36.0524 89.7696 21.9272 102.122 20.995C98.6623 28.3465 96.151 34.6394 99.6033 37.5755L96.3852 42.7649H96.3857Z" fill="#998D6F"/>
<path fill-rule="evenodd" clip-rule="evenodd" d="M58.785 38.6594C47.1501 29.9486 37.0391 24.8717 24.8624 25.402L23.014 22.4206C34.4489 20.6496 45.5102 24.2924 56.9357 32.3409C79.2131 48.0341 91.3805 53.37 116.049 41.2581C94.592 57.405 78.3315 53.2939 58.785 38.6594Z" fill="#998D6F"/>
<path fill-rule="evenodd" clip-rule="evenodd" d="M69.3093 51.2378C84.9346 57.8527 93.0742 57.9409 105.49 55.1766C89.8917 56.0495 79.5035 53.4905 70.7982 48.809L69.3093 51.2373V51.2378Z" fill="#998D6F"/>
<path fill-rule="evenodd" clip-rule="evenodd" d="M63.729 37.6213C45.5074 24.0493 29.5951 16.4461 5 29.5761C25.1354 14.9939 43.0294 16.4499 61.9003 29.5761C84.54 45.3239 98.0247 50.8288 122.281 37.6213C102.204 53.2725 82.7575 51.7946 63.729 37.6213ZM10.1104 1.60579L20.226 17.9231C22.2558 17.0926 24.6306 16.4849 27.2601 16.1366L21.4349 6.6173C27.3985 6.68872 32.0489 13.6533 32.8833 15L33.3803 15.802C35.2501 15.8323 37.1948 15.977 39.1919 16.2454C39.9496 16.3472 40.6995 16.4662 41.4413 16.5988L37.0784 9.57491C31.0471 -0.135359 18.9681 -1.77428 10.1099 1.60532L10.1104 1.60579ZM29.7125 33.2265L54.5666 73.3186C59.8509 81.8427 71.6709 82.6208 77.4704 73.2686L87.7814 56.6409C85.5577 56.394 83.2591 55.958 80.7918 55.3031L73.2543 67.6171C68.4543 75.4588 63.162 74.8044 58.7897 67.6596L38.3687 34.2889C37.9021 34.1881 37.4323 34.0938 36.9592 34.0056C34.4414 33.5369 32.0096 33.2834 29.7129 33.2265H29.7125ZM99.3149 38.0415L121.962 1.52083C111.139 -2.14304 100.06 1.08158 94.8903 9.51376L80.0448 33.7278C81.816 35.1021 83.3769 36.7596 84.6129 38.5517L99.6655 14.2984C99.9152 13.8965 104.565 6.7368 110.638 6.54541L99.3902 24.9203C96.9864 28.8479 95.908 32.8918 99.3154 38.0419L99.3149 38.0415ZM69.3093 51.2373L66.1534 56.3846L59.9028 46.3215C59.2287 45.1456 58.1642 44.0066 56.7123 42.7972C53.9565 40.5019 50.4252 38.3659 46.3456 36.7251L66.0304 68.491L75.2854 53.5787C73.4113 52.9121 71.4288 52.1345 69.3088 51.2373H69.3093Z" fill="#423F32"/>
<path fill-rule="evenodd" clip-rule="evenodd" d="M11.7377 32.453C32.5477 29.6704 48.891 36.7144 59.353 45.4364C43.9783 24.7733 34.1324 25.5617 11.7377 32.453Z" fill="#998D6F"/>
</svg>
